<svg width="20" height="20" viewBox="0 0 20 20" fill="none" xmlns="http://www.w3.org/2000/svg">
<g id="Group 64">
<path id="Rectangle 14" d="M2 7V15C2 16.8856 2 17.8284 2.58579 18.4142C3.17157 19 4.11438 19 6 19H14C15.8856 19 16.8284 19 17.4142 18.4142C18 17.8284 18 16.8856 18 15V7" stroke="#343434" stroke-width="2" stroke-linecap="round" stroke-linejoin="round"/>
<path id="Rectangle 15" d="M4 7L16 7C16.9319 7 17.3978 7 17.7654 6.84776C18.2554 6.64477 18.6448 6.25542 18.8478 5.76537C19 5.39782 19 4.93188 19 4C19 3.06812 19 2.60218 18.8478 2.23463C18.6448 1.74458 18.2554 1.35523 17.7654 1.15224C17.3978 1 16.9319 1 16 1L9.1 1L4 1C3.06812 1 2.60217 1 2.23463 1.15224C1.74458 1.35523 1.35523 1.74458 1.15224 2.23463C1 2.60218 1 3.06812 1 4C1 4.93188 1 5.39782 1.15224 5.76537C1.35523 6.25542 1.74458 6.64477 2.23463 6.84776C2.60218 7 3.06812 7 4 7Z" stroke="#343434" stroke-width="2" stroke-linecap="round" stroke-linejoin="round"/>
<path id="Rectangle 16" d="M7 11L13 11" stroke="#343434" stroke-width="2" stroke-linecap="round" stroke-linejoin="round"/>
</g>
</svg>
