<svg width="16" height="22" viewBox="0 0 16 22" fill="none" xmlns="http://www.w3.org/2000/svg">
<g id="Book">
<path id="Rectangle 13" d="M14 13.4354C14 13.9876 14.4477 14.4354 15 14.4354C15.5523 14.4354 16 13.9876 16 13.4354H14ZM14.4142 1.58579L15.1213 0.87868L14.4142 1.58579ZM5 2H11V0H5V2ZM14 4.99868C14 5.00324 14 5.0078 14 5.01236C14 5.01692 14 5.02148 14 5.02605C14 5.03062 14 5.03519 14 5.03976C14 5.04433 14 5.04891 14 5.05348C14 5.05806 14 5.06264 14 5.06723C14 5.07181 14 5.0764 14 5.08099C14 5.08557 14 5.09017 14 5.09476C14 5.09936 14 5.10395 14 5.10855C14 5.11315 14 5.11776 14 5.12236C14 5.12697 14 5.13158 14 5.13619C14 5.1408 14 5.14541 14 5.15003C14 5.15465 14 5.15927 14 5.16389C14 5.16851 14 5.17314 14 5.17777C14 5.18239 14 5.18702 14 5.19166C14 5.19629 14 5.20093 14 5.20557C14 5.21021 14 5.21485 14 5.21949C14 5.22414 14 5.22878 14 5.23343C14 5.23808 14 5.24273 14 5.24739C14 5.25205 14 5.2567 14 5.26136C14 5.26602 14 5.27069 14 5.27535C14 5.28002 14 5.28469 14 5.28936C14 5.29403 14 5.29871 14 5.30338C14 5.30806 14 5.31274 14 5.31742C14 5.3221 14 5.32679 14 5.33148C14 5.33616 14 5.34086 14 5.34555C14 5.35024 14 5.35494 14 5.35963C14 5.36433 14 5.36903 14 5.37374C14 5.37844 14 5.38315 14 5.38786C14 5.39257 14 5.39728 14 5.40199C14 5.40671 14 5.41142 14 5.41614C14 5.42086 14 5.42559 14 5.43031C14 5.43504 14 5.43976 14 5.44449C14 5.44922 14 5.45396 14 5.45869C14 5.46343 14 5.46817 14 5.47291C14 5.47765 14 5.48239 14 5.48714C14 5.49188 14 5.49663 14 5.50138C14 5.50613 14 5.51089 14 5.51564C14 5.5204 14 5.52516 14 5.52992C14 5.53468 14 5.53945 14 5.54421C14 5.54898 14 5.55375 14 5.55852C14 5.56329 14 5.56807 14 5.57285C14 5.57762 14 5.5824 14 5.58719C14 5.59197 14 5.59675 14 5.60154C14 5.60633 14 5.61112 14 5.61591C14 5.6207 14 5.6255 14 5.6303C14 5.63509 14 5.63989 14 5.6447C14 5.6495 14 5.65431 14 5.65911C14 5.66392 14 5.66873 14 5.67355C14 5.67836 14 5.68317 14 5.68799C14 5.69281 14 5.69763 14 5.70245C14 5.70728 14 5.7121 14 5.71693C14 5.72176 14 5.72659 14 5.73142C14 5.73626 14 5.74109 14 5.74593C14 5.75077 14 5.75561 14 5.76046C14 5.7653 14 5.77014 14 5.77499C14 5.77984 14 5.78469 14 5.78955C14 5.7944 14 5.79926 14 5.80411C14 5.80897 14 5.81383 14 5.8187C14 5.82356 14 5.82843 14 5.83329C14 5.83816 14 5.84303 14 5.84791C14 5.85278 14 5.85766 14 5.86253C14 5.86741 14 5.87229 14 5.87718C14 5.88206 14 5.88695 14 5.89183C14 5.89672 14 5.90161 14 5.90651C14 5.9114 14 5.91629 14 5.92119C14 5.92609 14 5.93099 14 5.93589C14 5.9408 14 5.9457 14 5.95061C14 5.95552 14 5.96043 14 5.96534C14 5.97025 14 5.97517 14 5.98008C14 5.985 14 5.98992 14 5.99484C14 5.99977 14 6.00469 14 6.00962C14 6.01454 14 6.01947 14 6.02441C14 6.02934 14 6.03427 14 6.03921C14 6.04415 14 6.04908 14 6.05403C14 6.05897 14 6.06391 14 6.06886C14 6.0738 14 6.07875 14 6.0837C14 6.08865 14 6.09361 14 6.09856C14 6.10352 14 6.10848 14 6.11344C14 6.1184 14 6.12336 14 6.12833C14 6.13329 14 6.13826 14 6.14323C14 6.1482 14 6.15317 14 6.15815C14 6.16312 14 6.1681 14 6.17308C14 6.17806 14 6.18304 14 6.18802C14 6.19301 14 6.19799 14 6.20298C14 6.20797 14 6.21296 14 6.21796C14 6.22295 14 6.22794 14 6.23294C14 6.23794 14 6.24294 14 6.24794C14 6.25295 14 6.25795 14 6.26296C14 6.26797 14 6.27298 14 6.27799C14 6.283 14 6.28801 14 6.29303C14 6.29805 14 6.30307 14 6.30809C14 6.31311 14 6.31813 14 6.32316C14 6.32818 14 6.33321 14 6.33824C14 6.34327 14 6.3483 14 6.35334C14 6.35837 14 6.36341 14 6.36845C14 6.37349 14 6.37853 14 6.38358C14 6.38862 14 6.39367 14 6.39871C14 6.40376 14 6.40881 14 6.41387C14 6.41892 14 6.42397 14 6.42903C14 6.43409 14 6.43915 14 6.44421C14 6.44927 14 6.45434 14 6.4594C14 6.46447 14 6.46954 14 6.47461C14 6.47968 14 6.48475 14 6.48983C14 6.4949 14 6.49998 14 6.50506C14 6.51014 14 6.51522 14 6.52031C14 6.52539 14 6.53048 14 6.53557C14 6.54066 14 6.54575 14 6.55084C14 6.55593 14 6.56103 14 6.56613C14 6.57122 14 6.57632 14 6.58142C14 6.58653 14 6.59163 14 6.59674C14 6.60184 14 6.60695 14 6.61206C14 6.61717 14 6.62229 14 6.6274C14 6.63252 14 6.63763 14 6.64275C14 6.64787 14 6.65299 14 6.65812C14 6.66324 14 6.66837 14 6.67349C14 6.67862 14 6.68375 14 6.68888C14 6.69402 14 6.69915 14 6.70429C14 6.70942 14 6.71456 14 6.7197C14 6.72484 14 6.72999 14 6.73513C14 6.74028 14 6.74542 14 6.75057C14 6.75572 14 6.76087 14 6.76603C14 6.77118 14 6.77634 14 6.78149C14 6.78665 14 6.79181 14 6.79697C14 6.80214 14 6.8073 14 6.81247C14 6.81763 14 6.8228 14 6.82797C14 6.83314 14 6.83831 14 6.84349C14 6.84866 14 6.85384 14 6.85902C14 6.8642 14 6.86938 14 6.87456C14 6.87974 14 6.88493 14 6.89012C14 6.8953 14 6.90049 14 6.90568C14 6.91087 14 6.91607 14 6.92126C14 6.92646 14 6.93166 14 6.93686C14 6.94205 14 6.94726 14 6.95246C14 6.95766 14 6.96287 14 6.96808C14 6.97328 14 6.97849 14 6.98371C14 6.98892 14 6.99413 14 6.99935C14 7.00456 14 7.00978 14 7.015C14 7.02022 14 7.02544 14 7.03067C14 7.03589 14 7.04112 14 7.04634C14 7.05157 14 7.0568 14 7.06203C14 7.06727 14 7.0725 14 7.07774C14 7.08297 14 7.08821 14 7.09345C14 7.09869 14 7.10393 14 7.10918C14 7.11442 14 7.11967 14 7.12491C14 7.13016 14 7.13541 14 7.14066C14 7.14592 14 7.15117 14 7.15642C14 7.16168 14 7.16694 14 7.1722C14 7.17746 14 7.18272 14 7.18798C14 7.19325 14 7.19851 14 7.20378C14 7.20905 14 7.21432 14 7.21959C14 7.22486 14 7.23013 14 7.23541C14 7.24069 14 7.24596 14 7.25124C14 7.25652 14 7.2618 14 7.26709C14 7.27237 14 7.27765 14 7.28294C14 7.28823 14 7.29352 14 7.29881C14 7.3041 14 7.30939 14 7.31469C14 7.31998 14 7.32528 14 7.33058C14 7.33588 14 7.34118 14 7.34648C14 7.35178 14 7.35709 14 7.36239C14 7.3677 14 7.37301 14 7.37832C14 7.38363 14 7.38894 14 7.39425C14 7.39957 14 7.40488 14 7.4102C14 7.41552 14 7.42084 14 7.42616C14 7.43148 14 7.4368 14 7.44213C14 7.44745 14 7.45278 14 7.45811C14 7.46344 14 7.46877 14 7.4741C14 7.47943 14 7.48477 14 7.4901C14 7.49544 14 7.50078 14 7.50612C14 7.51146 14 7.5168 14 7.52214C14 7.52748 14 7.53283 14 7.53818C14 7.54352 14 7.54887 14 7.55422C14 7.55958 14 7.56493 14 7.57028C14 7.57564 14 7.58099 14 7.58635C14 7.59171 14 7.59707 14 7.60243C14 7.60779 14 7.61316 14 7.61852C14 7.62389 14 7.62926 14 7.63462C14 7.63999 14 7.64537 14 7.65074C14 7.65611 14 7.66148 14 7.66686C14 7.67224 14 7.67762 14 7.683C14 7.68837 14 7.69376 14 7.69914C14 7.70452 14 7.70991 14 7.7153C14 7.72068 14 7.72607 14 7.73146C14 7.73685 14 7.74224 14 7.74764C14 7.75303 14 7.75843 14 7.76382C14 7.76922 14 7.77462 14 7.78002C14 7.78542 14 7.79083 14 7.79623C14 7.80164 14 7.80704 14 7.81245C14 7.81786 14 7.82327 14 7.82868C14 7.83409 14 7.8395 14 7.84492C14 7.85033 14 7.85575 14 7.86117C14 7.86659 14 7.87201 14 7.87743C14 7.88285 14 7.88827 14 7.8937C14 7.89912 14 7.90455 14 7.90998C14 7.91541 14 7.92084 14 7.92627C14 7.9317 14 7.93714 14 7.94257C14 7.94801 14 7.95344 14 7.95888C14 7.96432 14 7.96976 14 7.9752C14 7.98064 14 7.98609 14 7.99153C14 7.99698 14 8.00243 14 8.00787C14 8.01332 14 8.01877 14 8.02423C14 8.02968 14 8.03513 14 8.04059C14 8.04604 14 8.0515 14 8.05696C14 8.06242 14 8.06788 14 8.07334C14 8.0788 14 8.08427 14 8.08973C14 8.0952 14 8.10066 14 8.10613C14 8.1116 14 8.11707 14 8.12254C14 8.12801 14 8.13349 14 8.13896C14 8.14444 14 8.14991 14 8.15539C14 8.16087 14 8.16635 14 8.17183C14 8.17731 14 8.1828 14 8.18828C14 8.19377 14 8.19925 14 8.20474C14 8.21023 14 8.21572 14 8.22121C14 8.2267 14 8.23219 14 8.23769C14 8.24318 14 8.24868 14 8.25417C14 8.25967 14 8.26517 14 8.27067C14 8.27617 14 8.28167 14 8.28718C14 8.29268 14 8.29819 14 8.30369C14 8.3092 14 8.31471 14 8.32022C14 8.32573 14 8.33124 14 8.33675C14 8.34227 14 8.34778 14 8.3533C14 8.35881 14 8.36433 14 8.36985C14 8.37537 14 8.38089 14 8.38641C14 8.39193 14 8.39746 14 8.40298C14 8.40851 14 8.41403 14 8.41956C14 8.42509 14 8.43062 14 8.43615C14 8.44168 14 8.44722 14 8.45275C14 8.45829 14 8.46382 14 8.46936C14 8.4749 14 8.48044 14 8.48598C14 8.49152 14 8.49706 14 8.5026C14 8.50815 14 8.51369 14 8.51924C14 8.52478 14 8.53033 14 8.53588C14 8.54143 14 8.54698 14 8.55253C14 8.55809 14 8.56364 14 8.56919C14 8.57475 14 8.58031 14 8.58587C14 8.59142 14 8.59698 14 8.60254C14 8.60811 14 8.61367 14 8.61923C14 8.6248 14 8.63036 14 8.63593C14 8.6415 14 8.64706 14 8.65263C14 8.6582 14 8.66377 14 8.66935C14 8.67492 14 8.68049 14 8.68607C14 8.69165 14 8.69722 14 8.7028C14 8.70838 14 8.71396 14 8.71954C14 8.72512 14 8.7307 14 8.73629C14 8.74187 14 8.74746 14 8.75304C14 8.75863 14 8.76422 14 8.76981C14 8.7754 14 8.78099 14 8.78658C14 8.79217 14 8.79777 14 8.80336C14 8.80896 14 8.81456 14 8.82015C14 8.82575 14 8.83135 14 8.83695C14 8.84255 14 8.84815 14 8.85376C14 8.85936 14 8.86497 14 8.87057C14 8.87618 14 8.88179 14 8.8874C14 8.893 14 8.89861 14 8.90423C14 8.90984 14 8.91545 14 8.92107C14 8.92668 14 8.9323 14 8.93791C14 8.94353 14 8.94915 14 8.95477C14 8.96039 14 8.96601 14 8.97163C14 8.97725 14 8.98288 14 8.9885C14 8.99413 14 8.99975 14 9.00538C14 9.01101 14 9.01664 14 9.02227C14 9.0279 14 9.03353 14 9.03916C14 9.0448 14 9.05043 14 9.05607C14 9.0617 14 9.06734 14 9.07298C14 9.07861 14 9.08425 14 9.08989C14 9.09553 14 9.10118 14 9.10682C14 9.11246 14 9.11811 14 9.12375C14 9.1294 14 9.13505 14 9.14069C14 9.14634 14 9.15199 14 9.15764C14 9.16329 14 9.16895 14 9.1746C14 9.18025 14 9.18591 14 9.19156C14 9.19722 14 9.20288 14 9.20854C14 9.21419 14 9.21985 14 9.22551C14 9.23118 14 9.23684 14 9.2425C14 9.24816 14 9.25383 14 9.25949C14 9.26516 14 9.27083 14 9.2765C14 9.28216 14 9.28783 14 9.2935C14 9.29918 14 9.30485 14 9.31052C14 9.31619 14 9.32187 14 9.32754C14 9.33322 14 9.3389 14 9.34457C14 9.35025 14 9.35593 14 9.36161C14 9.36729 14 9.37297 14 9.37866C14 9.38434 14 9.39002 14 9.39571C14 9.40139 14 9.40708 14 9.41277C14 9.41846 14 9.42414 14 9.42983C14 9.43552 14 9.44121 14 9.44691C14 9.4526 14 9.45829 14 9.46399C14 9.46968 14 9.47538 14 9.48107C14 9.48677 14 9.49247 14 9.49817C14 9.50387 14 9.50957 14 9.51527C14 9.52097 14 9.52667 14 9.53238C14 9.53808 14 9.54378 14 9.54949C14 9.5552 14 9.5609 14 9.56661C14 9.57232 14 9.57803 14 9.58374C14 9.58945 14 9.59516 14 9.60087C14 9.60659 14 9.6123 14 9.61802C14 9.62373 14 9.62945 14 9.63516C14 9.64088 14 9.6466 14 9.65232C14 9.65804 14 9.66376 14 9.66948C14 9.6752 14 9.68092 14 9.68665C14 9.69237 14 9.6981 14 9.70382C14 9.70955 14 9.71527 14 9.721C14 9.72673 14 9.73246 14 9.73819C14 9.74392 14 9.74965 14 9.75538C14 9.76112 14 9.76685 14 9.77258C14 9.77832 14 9.78405 14 9.78979C14 9.79553 14 9.80126 14 9.807C14 9.81274 14 9.81848 14 9.82422C14 9.82996 14 9.8357 14 9.84145C14 9.84719 14 9.85293 14 9.85868C14 9.86442 14 9.87017 14 9.87591C14 9.88166 14 9.88741 14 9.89316C14 9.89891 14 9.90466 14 9.91041C14 9.91616 14 9.92191 14 9.92766C14 9.93342 14 9.93917 14 9.94492C14 9.95068 14 9.95644 14 9.96219C14 9.96795 14 9.97371 14 9.97947C14 9.98522 14 9.99098 14 9.99675C14 10.0025 14 10.0083 14 10.014C14 10.0198 14 10.0256 14 10.0313C14 10.0371 14 10.0429 14 10.0486C14 10.0544 14 10.0602 14 10.0659C14 10.0717 14 10.0775 14 10.0832C14 10.089 14 10.0948 14 10.1005C14 10.1063 14 10.1121 14 10.1179C14 10.1236 14 10.1294 14 10.1352C14 10.141 14 10.1467 14 10.1525C14 10.1583 14 10.1641 14 10.1699C14 10.1756 14 10.1814 14 10.1872C14 10.193 14 10.1988 14 10.2045C14 10.2103 14 10.2161 14 10.2219C14 10.2277 14 10.2335 14 10.2393C14 10.245 14 10.2508 14 10.2566C14 10.2624 14 10.2682 14 10.274C14 10.2798 14 10.2856 14 10.2914C14 10.2972 14 10.303 14 10.3087C14 10.3145 14 10.3203 14 10.3261C14 10.3319 14 10.3377 14 10.3435C14 10.3493 14 10.3551 14 10.3609C14 10.3667 14 10.3725 14 10.3783C14 10.3841 14 10.3899 14 10.3957C14 10.4015 14 10.4073 14 10.4131C14 10.4189 14 10.4247 14 10.4306C14 10.4364 14 10.4422 14 10.448C14 10.4538 14 10.4596 14 10.4654C14 10.4712 14 10.477 14 10.4828C14 10.4886 14 10.4945 14 10.5003C14 10.5061 14 10.5119 14 10.5177C14 10.5235 14 10.5293 14 10.5351C14 10.541 14 10.5468 14 10.5526C14 10.5584 14 10.5642 14 10.5701C14 10.5759 14 10.5817 14 10.5875C14 10.5933 14 10.5992 14 10.605C14 10.6108 14 10.6166 14 10.6224C14 10.6283 14 10.6341 14 10.6399C14 10.6457 14 10.6516 14 10.6574C14 10.6632 14 10.6691 14 10.6749C14 10.6807 14 10.6865 14 10.6924C14 10.6982 14 10.704 14 10.7099C14 10.7157 14 10.7215 14 10.7274C14 10.7332 14 10.739 14 10.7449C14 10.7507 14 10.7565 14 10.7624C14 10.7682 14 10.774 14 10.7799C14 10.7857 14 10.7915 14 10.7974C14 10.8032 14 10.8091 14 10.8149C14 10.8207 14 10.8266 14 10.8324C14 10.8383 14 10.8441 14 10.85C14 10.8558 14 10.8616 14 10.8675C14 10.8733 14 10.8792 14 10.885C14 10.8909 14 10.8967 14 10.9026C14 10.9084 14 10.9142 14 10.9201C14 10.9259 14 10.9318 14 10.9376C14 10.9435 14 10.9493 14 10.9552C14 10.961 14 10.9669 14 10.9727C14 10.9786 14 10.9845 14 10.9903C14 10.9962 14 11.002 14 11.0079C14 11.0137 14 11.0196 14 11.0254C14 11.0313 14 11.0371 14 11.043C14 11.0489 14 11.0547 14 11.0606C14 11.0664 14 11.0723 14 11.0782C14 11.084 14 11.0899 14 11.0957C14 11.1016 14 11.1075 14 11.1133C14 11.1192 14 11.125 14 11.1309C14 11.1368 14 11.1426 14 11.1485C14 11.1544 14 11.1602 14 11.1661C14 11.172 14 11.1778 14 11.1837C14 11.1896 14 11.1954 14 11.2013C14 11.2072 14 11.213 14 11.2189C14 11.2248 14 11.2306 14 11.2365C14 11.2424 14 11.2483 14 11.2541C14 11.26 14 11.2659 14 11.2717C14 11.2776 14 11.2835 14 11.2894C14 11.2952 14 11.3011 14 11.307C14 11.3129 14 11.3187 14 11.3246C14 11.3305 14 11.3364 14 11.3422C14 11.3481 14 11.354 14 11.3599C14 11.3658 14 11.3716 14 11.3775C14 11.3834 14 11.3893 14 11.3952C14 11.401 14 11.4069 14 11.4128C14 11.4187 14 11.4246 14 11.4304C14 11.4363 14 11.4422 14 11.4481C14 11.454 14 11.4599 14 11.4657C14 11.4716 14 11.4775 14 11.4834C14 11.4893 14 11.4952 14 11.5011C14 11.5069 14 11.5128 14 11.5187C14 11.5246 14 11.5305 14 11.5364C14 11.5423 14 11.5482 14 11.554C14 11.5599 14 11.5658 14 11.5717C14 11.5776 14 11.5835 14 11.5894C14 11.5953 14 11.6012 14 11.6071C14 11.6129 14 11.6188 14 11.6247C14 11.6306 14 11.6365 14 11.6424C14 11.6483 14 11.6542 14 11.6601C14 11.666 14 11.6719 14 11.6778C14 11.6837 14 11.6896 14 11.6955C14 11.7014 14 11.7073 14 11.7132C14 11.7191 14 11.7249 14 11.7308C14 11.7367 14 11.7426 14 11.7485C14 11.7544 14 11.7603 14 11.7662C14 11.7721 14 11.778 14 11.7839C14 11.7898 14 11.7957 14 11.8016C14 11.8075 14 11.8134 14 11.8193C14 11.8252 14 11.8311 14 11.837C14 11.8429 14 11.8488 14 11.8548C14 11.8607 14 11.8666 14 11.8725C14 11.8784 14 11.8843 14 11.8902C14 11.8961 14 11.902 14 11.9079C14 11.9138 14 11.9197 14 11.9256C14 11.9315 14 11.9374 14 11.9433C14 11.9492 14 11.9551 14 11.961C14 11.967 14 11.9729 14 11.9788C14 11.9847 14 11.9906 14 11.9965C14 12.0024 14 12.0083 14 12.0142C14 12.0201 14 12.026 14 12.0319C14 12.0379 14 12.0438 14 12.0497C14 12.0556 14 12.0615 14 12.0674C14 12.0733 14 12.0792 14 12.0851C14 12.0911 14 12.097 14 12.1029C14 12.1088 14 12.1147 14 12.1206C14 12.1265 14 12.1324 14 12.1384C14 12.1443 14 12.1502 14 12.1561C14 12.162 14 12.1679 14 12.1738C14 12.1797 14 12.1857 14 12.1916C14 12.1975 14 12.2034 14 12.2093C14 12.2152 14 12.2212 14 12.2271C14 12.233 14 12.2389 14 12.2448C14 12.2507 14 12.2566 14 12.2626C14 12.2685 14 12.2744 14 12.2803C14 12.2862 14 12.2921 14 12.2981C14 12.304 14 12.3099 14 12.3158C14 12.3217 14 12.3277 14 12.3336C14 12.3395 14 12.3454 14 12.3513C14 12.3572 14 12.3632 14 12.3691C14 12.375 14 12.3809 14 12.3868C14 12.3928 14 12.3987 14 12.4046C14 12.4105 14 12.4164 14 12.4224C14 12.4283 14 12.4342 14 12.4401C14 12.446 14 12.452 14 12.4579C14 12.4638 14 12.4697 14 12.4756C14 12.4816 14 12.4875 14 12.4934C14 12.4993 14 12.5053 14 12.5112C14 12.5171 14 12.523 14 12.5289C14 12.5349 14 12.5408 14 12.5467C14 12.5526 14 12.5586 14 12.5645C14 12.5704 14 12.5763 14 12.5822C14 12.5882 14 12.5941 14 12.6C14 12.6059 14 12.6119 14 12.6178C14 12.6237 14 12.6296 14 12.6356C14 12.6415 14 12.6474 14 12.6533C14 12.6593 14 12.6652 14 12.6711C14 12.677 14 12.6829 14 12.6889C14 12.6948 14 12.7007 14 12.7066C14 12.7126 14 12.7185 14 12.7244C14 12.7303 14 12.7363 14 12.7422C14 12.7481 14 12.754 14 12.76C14 12.7659 14 12.7718 14 12.7777C14 12.7837 14 12.7896 14 12.7955C14 12.8014 14 12.8074 14 12.8133C14 12.8192 14 12.8251 14 12.8311C14 12.837 14 12.8429 14 12.8488C14 12.8548 14 12.8607 14 12.8666C14 12.8725 14 12.8785 14 12.8844C14 12.8903 14 12.8962 14 12.9022C14 12.9081 14 12.914 14 12.9199C14 12.9259 14 12.9318 14 12.9377C14 12.9436 14 12.9496 14 12.9555C14 12.9614 14 12.9674 14 12.9733C14 12.9792 14 12.9851 14 12.9911C14 12.997 14 13.0029 14 13.0088C14 13.0148 14 13.0207 14 13.0266C14 13.0325 14 13.0385 14 13.0444C14 13.0503 14 13.0562 14 13.0622C14 13.0681 14 13.074 14 13.0799C14 13.0859 14 13.0918 14 13.0977C14 13.1036 14 13.1096 14 13.1155C14 13.1214 14 13.1273 14 13.1333C14 13.1392 14 13.1451 14 13.151C14 13.157 14 13.1629 14 13.1688C14 13.1747 14 13.1807 14 13.1866C14 13.1925 14 13.1984 14 13.2044C14 13.2103 14 13.2162 14 13.2221C14 13.2281 14 13.234 14 13.2399C14 13.2458 14 13.2518 14 13.2577C14 13.2636 14 13.2695 14 13.2754C14 13.2814 14 13.2873 14 13.2932C14 13.2991 14 13.3051 14 13.311C14 13.3169 14 13.3228 14 13.3288C14 13.3347 14 13.3406 14 13.3465C14 13.3525 14 13.3584 14 13.3643C14 13.3702 14 13.3761 14 13.3821C14 13.388 14 13.3939 14 13.3998C14 13.4058 14 13.4117 14 13.4176C14 13.4235 14 13.4294 14 13.4354H16C16 13.4294 16 13.4235 16 13.4176C16 13.4117 16 13.4058 16 13.3998C16 13.3939 16 13.388 16 13.3821C16 13.3761 16 13.3702 16 13.3643C16 13.3584 16 13.3525 16 13.3465C16 13.3406 16 13.3347 16 13.3288C16 13.3228 16 13.3169 16 13.311C16 13.3051 16 13.2991 16 13.2932C16 13.2873 16 13.2814 16 13.2754C16 13.2695 16 13.2636 16 13.2577C16 13.2518 16 13.2458 16 13.2399C16 13.234 16 13.2281 16 13.2221C16 13.2162 16 13.2103 16 13.2044C16 13.1984 16 13.1925 16 13.1866C16 13.1807 16 13.1747 16 13.1688C16 13.1629 16 13.157 16 13.151C16 13.1451 16 13.1392 16 13.1333C16 13.1273 16 13.1214 16 13.1155C16 13.1096 16 13.1036 16 13.0977C16 13.0918 16 13.0859 16 13.0799C16 13.074 16 13.0681 16 13.0622C16 13.0562 16 13.0503 16 13.0444C16 13.0385 16 13.0325 16 13.0266C16 13.0207 16 13.0148 16 13.0088C16 13.0029 16 12.997 16 12.9911C16 12.9851 16 12.9792 16 12.9733C16 12.9674 16 12.9614 16 12.9555C16 12.9496 16 12.9436 16 12.9377C16 12.9318 16 12.9259 16 12.9199C16 12.914 16 12.9081 16 12.9022C16 12.8962 16 12.8903 16 12.8844C16 12.8785 16 12.8725 16 12.8666C16 12.8607 16 12.8548 16 12.8488C16 12.8429 16 12.837 16 12.8311C16 12.8251 16 12.8192 16 12.8133C16 12.8074 16 12.8014 16 12.7955C16 12.7896 16 12.7837 16 12.7777C16 12.7718 16 12.7659 16 12.76C16 12.754 16 12.7481 16 12.7422C16 12.7363 16 12.7303 16 12.7244C16 12.7185 16 12.7126 16 12.7066C16 12.7007 16 12.6948 16 12.6889C16 12.6829 16 12.677 16 12.6711C16 12.6652 16 12.6593 16 12.6533C16 12.6474 16 12.6415 16 12.6356C16 12.6296 16 12.6237 16 12.6178C16 12.6119 16 12.6059 16 12.6C16 12.5941 16 12.5882 16 12.5822C16 12.5763 16 12.5704 16 12.5645C16 12.5586 16 12.5526 16 12.5467C16 12.5408 16 12.5349 16 12.5289C16 12.523 16 12.5171 16 12.5112C16 12.5053 16 12.4993 16 12.4934C16 12.4875 16 12.4816 16 12.4756C16 12.4697 16 12.4638 16 12.4579C16 12.452 16 12.446 16 12.4401C16 12.4342 16 12.4283 16 12.4224C16 12.4164 16 12.4105 16 12.4046C16 12.3987 16 12.3928 16 12.3868C16 12.3809 16 12.375 16 12.3691C16 12.3632 16 12.3572 16 12.3513C16 12.3454 16 12.3395 16 12.3336C16 12.3277 16 12.3217 16 12.3158C16 12.3099 16 12.304 16 12.2981C16 12.2921 16 12.2862 16 12.2803C16 12.2744 16 12.2685 16 12.2626C16 12.2566 16 12.2507 16 12.2448C16 12.2389 16 12.233 16 12.2271C16 12.2212 16 12.2152 16 12.2093C16 12.2034 16 12.1975 16 12.1916C16 12.1857 16 12.1797 16 12.1738C16 12.1679 16 12.162 16 12.1561C16 12.1502 16 12.1443 16 12.1384C16 12.1324 16 12.1265 16 12.1206C16 12.1147 16 12.1088 16 12.1029C16 12.097 16 12.0911 16 12.0851C16 12.0792 16 12.0733 16 12.0674C16 12.0615 16 12.0556 16 12.0497C16 12.0438 16 12.0379 16 12.0319C16 12.026 16 12.0201 16 12.0142C16 12.0083 16 12.0024 16 11.9965C16 11.9906 16 11.9847 16 11.9788C16 11.9729 16 11.967 16 11.961C16 11.9551 16 11.9492 16 11.9433C16 11.9374 16 11.9315 16 11.9256C16 11.9197 16 11.9138 16 11.9079C16 11.902 16 11.8961 16 11.8902C16 11.8843 16 11.8784 16 11.8725C16 11.8666 16 11.8607 16 11.8548C16 11.8488 16 11.8429 16 11.837C16 11.8311 16 11.8252 16 11.8193C16 11.8134 16 11.8075 16 11.8016C16 11.7957 16 11.7898 16 11.7839C16 11.778 16 11.7721 16 11.7662C16 11.7603 16 11.7544 16 11.7485C16 11.7426 16 11.7367 16 11.7308C16 11.7249 16 11.7191 16 11.7132C16 11.7073 16 11.7014 16 11.6955C16 11.6896 16 11.6837 16 11.6778C16 11.6719 16 11.666 16 11.6601C16 11.6542 16 11.6483 16 11.6424C16 11.6365 16 11.6306 16 11.6247C16 11.6188 16 11.6129 16 11.6071C16 11.6012 16 11.5953 16 11.5894C16 11.5835 16 11.5776 16 11.5717C16 11.5658 16 11.5599 16 11.554C16 11.5482 16 11.5423 16 11.5364C16 11.5305 16 11.5246 16 11.5187C16 11.5128 16 11.5069 16 11.5011C16 11.4952 16 11.4893 16 11.4834C16 11.4775 16 11.4716 16 11.4657C16 11.4599 16 11.454 16 11.4481C16 11.4422 16 11.4363 16 11.4304C16 11.4246 16 11.4187 16 11.4128C16 11.4069 16 11.401 16 11.3952C16 11.3893 16 11.3834 16 11.3775C16 11.3716 16 11.3658 16 11.3599C16 11.354 16 11.3481 16 11.3422C16 11.3364 16 11.3305 16 11.3246C16 11.3187 16 11.3129 16 11.307C16 11.3011 16 11.2952 16 11.2894C16 11.2835 16 11.2776 16 11.2717C16 11.2659 16 11.26 16 11.2541C16 11.2483 16 11.2424 16 11.2365C16 11.2306 16 11.2248 16 11.2189C16 11.213 16 11.2072 16 11.2013C16 11.1954 16 11.1896 16 11.1837C16 11.1778 16 11.172 16 11.1661C16 11.1602 16 11.1544 16 11.1485C16 11.1426 16 11.1368 16 11.1309C16 11.125 16 11.1192 16 11.1133C16 11.1075 16 11.1016 16 11.0957C16 11.0899 16 11.084 16 11.0782C16 11.0723 16 11.0664 16 11.0606C16 11.0547 16 11.0489 16 11.043C16 11.0371 16 11.0313 16 11.0254C16 11.0196 16 11.0137 16 11.0079C16 11.002 16 10.9962 16 10.9903C16 10.9845 16 10.9786 16 10.9727C16 10.9669 16 10.961 16 10.9552C16 10.9493 16 10.9435 16 10.9376C16 10.9318 16 10.9259 16 10.9201C16 10.9142 16 10.9084 16 10.9026C16 10.8967 16 10.8909 16 10.885C16 10.8792 16 10.8733 16 10.8675C16 10.8616 16 10.8558 16 10.85C16 10.8441 16 10.8383 16 10.8324C16 10.8266 16 10.8207 16 10.8149C16 10.8091 16 10.8032 16 10.7974C16 10.7915 16 10.7857 16 10.7799C16 10.774 16 10.7682 16 10.7624C16 10.7565 16 10.7507 16 10.7449C16 10.739 16 10.7332 16 10.7274C16 10.7215 16 10.7157 16 10.7099C16 10.704 16 10.6982 16 10.6924C16 10.6865 16 10.6807 16 10.6749C16 10.6691 16 10.6632 16 10.6574C16 10.6516 16 10.6457 16 10.6399C16 10.6341 16 10.6283 16 10.6224C16 10.6166 16 10.6108 16 10.605C16 10.5992 16 10.5933 16 10.5875C16 10.5817 16 10.5759 16 10.5701C16 10.5642 16 10.5584 16 10.5526C16 10.5468 16 10.541 16 10.5351C16 10.5293 16 10.5235 16 10.5177C16 10.5119 16 10.5061 16 10.5003C16 10.4945 16 10.4886 16 10.4828C16 10.477 16 10.4712 16 10.4654C16 10.4596 16 10.4538 16 10.448C16 10.4422 16 10.4364 16 10.4306C16 10.4247 16 10.4189 16 10.4131C16 10.4073 16 10.4015 16 10.3957C16 10.3899 16 10.3841 16 10.3783C16 10.3725 16 10.3667 16 10.3609C16 10.3551 16 10.3493 16 10.3435C16 10.3377 16 10.3319 16 10.3261C16 10.3203 16 10.3145 16 10.3087C16 10.303 16 10.2972 16 10.2914C16 10.2856 16 10.2798 16 10.274C16 10.2682 16 10.2624 16 10.2566C16 10.2508 16 10.245 16 10.2393C16 10.2335 16 10.2277 16 10.2219C16 10.2161 16 10.2103 16 10.2045C16 10.1988 16 10.193 16 10.1872C16 10.1814 16 10.1756 16 10.1699C16 10.1641 16 10.1583 16 10.1525C16 10.1467 16 10.141 16 10.1352C16 10.1294 16 10.1236 16 10.1179C16 10.1121 16 10.1063 16 10.1005C16 10.0948 16 10.089 16 10.0832C16 10.0775 16 10.0717 16 10.0659C16 10.0602 16 10.0544 16 10.0486C16 10.0429 16 10.0371 16 10.0313C16 10.0256 16 10.0198 16 10.014C16 10.0083 16 10.0025 16 9.99675C16 9.99098 16 9.98522 16 9.97947C16 9.97371 16 9.96795 16 9.96219C16 9.95644 16 9.95068 16 9.94492C16 9.93917 16 9.93342 16 9.92766C16 9.92191 16 9.91616 16 9.91041C16 9.90466 16 9.89891 16 9.89316C16 9.88741 16 9.88166 16 9.87591C16 9.87017 16 9.86442 16 9.85868C16 9.85293 16 9.84719 16 9.84145C16 9.8357 16 9.82996 16 9.82422C16 9.81848 16 9.81274 16 9.807C16 9.80126 16 9.79553 16 9.78979C16 9.78405 16 9.77832 16 9.77258C16 9.76685 16 9.76112 16 9.75538C16 9.74965 16 9.74392 16 9.73819C16 9.73246 16 9.72673 16 9.721C16 9.71527 16 9.70955 16 9.70382C16 9.6981 16 9.69237 16 9.68665C16 9.68092 16 9.6752 16 9.66948C16 9.66376 16 9.65804 16 9.65232C16 9.6466 16 9.64088 16 9.63516C16 9.62945 16 9.62373 16 9.61802C16 9.6123 16 9.60659 16 9.60087C16 9.59516 16 9.58945 16 9.58374C16 9.57803 16 9.57232 16 9.56661C16 9.5609 16 9.5552 16 9.54949C16 9.54378 16 9.53808 16 9.53238C16 9.52667 16 9.52097 16 9.51527C16 9.50957 16 9.50387 16 9.49817C16 9.49247 16 9.48677 16 9.48107C16 9.47538 16 9.46968 16 9.46399C16 9.45829 16 9.4526 16 9.44691C16 9.44121 16 9.43552 16 9.42983C16 9.42414 16 9.41846 16 9.41277C16 9.40708 16 9.40139 16 9.39571C16 9.39002 16 9.38434 16 9.37866C16 9.37297 16 9.36729 16 9.36161C16 9.35593 16 9.35025 16 9.34457C16 9.3389 16 9.33322 16 9.32754C16 9.32187 16 9.31619 16 9.31052C16 9.30485 16 9.29918 16 9.2935C16 9.28783 16 9.28216 16 9.2765C16 9.27083 16 9.26516 16 9.25949C16 9.25383 16 9.24816 16 9.2425C16 9.23684 16 9.23118 16 9.22551C16 9.21985 16 9.21419 16 9.20854C16 9.20288 16 9.19722 16 9.19156C16 9.18591 16 9.18025 16 9.1746C16 9.16895 16 9.16329 16 9.15764C16 9.15199 16 9.14634 16 9.14069C16 9.13505 16 9.1294 16 9.12375C16 9.11811 16 9.11246 16 9.10682C16 9.10118 16 9.09553 16 9.08989C16 9.08425 16 9.07861 16 9.07298C16 9.06734 16 9.0617 16 9.05607C16 9.05043 16 9.0448 16 9.03916C16 9.03353 16 9.0279 16 9.02227C16 9.01664 16 9.01101 16 9.00538C16 8.99975 16 8.99413 16 8.9885C16 8.98288 16 8.97725 16 8.97163C16 8.96601 16 8.96039 16 8.95477C16 8.94915 16 8.94353 16 8.93791C16 8.9323 16 8.92668 16 8.92107C16 8.91545 16 8.90984 16 8.90423C16 8.89861 16 8.893 16 8.8874C16 8.88179 16 8.87618 16 8.87057C16 8.86497 16 8.85936 16 8.85376C16 8.84815 16 8.84255 16 8.83695C16 8.83135 16 8.82575 16 8.82015C16 8.81456 16 8.80896 16 8.80336C16 8.79777 16 8.79217 16 8.78658C16 8.78099 16 8.7754 16 8.76981C16 8.76422 16 8.75863 16 8.75304C16 8.74746 16 8.74187 16 8.73629C16 8.7307 16 8.72512 16 8.71954C16 8.71396 16 8.70838 16 8.7028C16 8.69722 16 8.69165 16 8.68607C16 8.68049 16 8.67492 16 8.66935C16 8.66377 16 8.6582 16 8.65263C16 8.64706 16 8.6415 16 8.63593C16 8.63036 16 8.6248 16 8.61923C16 8.61367 16 8.60811 16 8.60254C16 8.59698 16 8.59142 16 8.58587C16 8.58031 16 8.57475 16 8.56919C16 8.56364 16 8.55809 16 8.55253C16 8.54698 16 8.54143 16 8.53588C16 8.53033 16 8.52478 16 8.51924C16 8.51369 16 8.50815 16 8.5026C16 8.49706 16 8.49152 16 8.48598C16 8.48044 16 8.4749 16 8.46936C16 8.46382 16 8.45829 16 8.45275C16 8.44722 16 8.44168 16 8.43615C16 8.43062 16 8.42509 16 8.41956C16 8.41403 16 8.40851 16 8.40298C16 8.39746 16 8.39193 16 8.38641C16 8.38089 16 8.37537 16 8.36985C16 8.36433 16 8.35881 16 8.3533C16 8.34778 16 8.34227 16 8.33675C16 8.33124 16 8.32573 16 8.32022C16 8.31471 16 8.3092 16 8.30369C16 8.29819 16 8.29268 16 8.28718C16 8.28167 16 8.27617 16 8.27067C16 8.26517 16 8.25967 16 8.25417C16 8.24868 16 8.24318 16 8.23769C16 8.23219 16 8.2267 16 8.22121C16 8.21572 16 8.21023 16 8.20474C16 8.19925 16 8.19377 16 8.18828C16 8.1828 16 8.17731 16 8.17183C16 8.16635 16 8.16087 16 8.15539C16 8.14991 16 8.14444 16 8.13896C16 8.13349 16 8.12801 16 8.12254C16 8.11707 16 8.1116 16 8.10613C16 8.10066 16 8.0952 16 8.08973C16 8.08427 16 8.0788 16 8.07334C16 8.06788 16 8.06242 16 8.05696C16 8.0515 16 8.04604 16 8.04059C16 8.03513 16 8.02968 16 8.02423C16 8.01877 16 8.01332 16 8.00787C16 8.00243 16 7.99698 16 7.99153C16 7.98609 16 7.98064 16 7.9752C16 7.96976 16 7.96432 16 7.95888C16 7.95344 16 7.94801 16 7.94257C16 7.93714 16 7.9317 16 7.92627C16 7.92084 16 7.91541 16 7.90998C16 7.90455 16 7.89912 16 7.8937C16 7.88827 16 7.88285 16 7.87743C16 7.87201 16 7.86659 16 7.86117C16 7.85575 16 7.85033 16 7.84492C16 7.8395 16 7.83409 16 7.82868C16 7.82327 16 7.81786 16 7.81245C16 7.80704 16 7.80164 16 7.79623C16 7.79083 16 7.78542 16 7.78002C16 7.77462 16 7.76922 16 7.76382C16 7.75843 16 7.75303 16 7.74764C16 7.74224 16 7.73685 16 7.73146C16 7.72607 16 7.72068 16 7.7153C16 7.70991 16 7.70452 16 7.69914C16 7.69376 16 7.68837 16 7.683C16 7.67762 16 7.67224 16 7.66686C16 7.66148 16 7.65611 16 7.65074C16 7.64537 16 7.63999 16 7.63462C16 7.62926 16 7.62389 16 7.61852C16 7.61316 16 7.60779 16 7.60243C16 7.59707 16 7.59171 16 7.58635C16 7.58099 16 7.57564 16 7.57028C16 7.56493 16 7.55958 16 7.55422C16 7.54887 16 7.54352 16 7.53818C16 7.53283 16 7.52748 16 7.52214C16 7.5168 16 7.51146 16 7.50612C16 7.50078 16 7.49544 16 7.4901C16 7.48477 16 7.47943 16 7.4741C16 7.46877 16 7.46344 16 7.45811C16 7.45278 16 7.44745 16 7.44213C16 7.4368 16 7.43148 16 7.42616C16 7.42084 16 7.41552 16 7.4102C16 7.40488 16 7.39957 16 7.39425C16 7.38894 16 7.38363 16 7.37832C16 7.37301 16 7.3677 16 7.36239C16 7.35709 16 7.35178 16 7.34648C16 7.34118 16 7.33588 16 7.33058C16 7.32528 16 7.31998 16 7.31469C16 7.30939 16 7.3041 16 7.29881C16 7.29352 16 7.28823 16 7.28294C16 7.27765 16 7.27237 16 7.26709C16 7.2618 16 7.25652 16 7.25124C16 7.24596 16 7.24069 16 7.23541C16 7.23013 16 7.22486 16 7.21959C16 7.21432 16 7.20905 16 7.20378C16 7.19851 16 7.19325 16 7.18798C16 7.18272 16 7.17746 16 7.1722C16 7.16694 16 7.16168 16 7.15642C16 7.15117 16 7.14592 16 7.14066C16 7.13541 16 7.13016 16 7.12491C16 7.11967 16 7.11442 16 7.10918C16 7.10393 16 7.09869 16 7.09345C16 7.08821 16 7.08297 16 7.07774C16 7.0725 16 7.06727 16 7.06203C16 7.0568 16 7.05157 16 7.04634C16 7.04112 16 7.03589 16 7.03067C16 7.02544 16 7.02022 16 7.015C16 7.00978 16 7.00456 16 6.99935C16 6.99413 16 6.98892 16 6.98371C16 6.97849 16 6.97328 16 6.96808C16 6.96287 16 6.95766 16 6.95246C16 6.94726 16 6.94205 16 6.93686C16 6.93166 16 6.92646 16 6.92126C16 6.91607 16 6.91087 16 6.90568C16 6.90049 16 6.8953 16 6.89012C16 6.88493 16 6.87974 16 6.87456C16 6.86938 16 6.8642 16 6.85902C16 6.85384 16 6.84866 16 6.84349C16 6.83831 16 6.83314 16 6.82797C16 6.8228 16 6.81763 16 6.81247C16 6.8073 16 6.80214 16 6.79697C16 6.79181 16 6.78665 16 6.78149C16 6.77634 16 6.77118 16 6.76603C16 6.76087 16 6.75572 16 6.75057C16 6.74542 16 6.74028 16 6.73513C16 6.72999 16 6.72484 16 6.7197C16 6.71456 16 6.70942 16 6.70429C16 6.69915 16 6.69402 16 6.68888C16 6.68375 16 6.67862 16 6.67349C16 6.66837 16 6.66324 16 6.65812C16 6.65299 16 6.64787 16 6.64275C16 6.63763 16 6.63252 16 6.6274C16 6.62229 16 6.61717 16 6.61206C16 6.60695 16 6.60184 16 6.59674C16 6.59163 16 6.58653 16 6.58142C16 6.57632 16 6.57122 16 6.56613C16 6.56103 16 6.55593 16 6.55084C16 6.54575 16 6.54066 16 6.53557C16 6.53048 16 6.52539 16 6.52031C16 6.51522 16 6.51014 16 6.50506C16 6.49998 16 6.4949 16 6.48983C16 6.48475 16 6.47968 16 6.47461C16 6.46954 16 6.46447 16 6.4594C16 6.45434 16 6.44927 16 6.44421C16 6.43915 16 6.43409 16 6.42903C16 6.42397 16 6.41892 16 6.41387C16 6.40881 16 6.40376 16 6.39871C16 6.39367 16 6.38862 16 6.38358C16 6.37853 16 6.37349 16 6.36845C16 6.36341 16 6.35837 16 6.35334C16 6.3483 16 6.34327 16 6.33824C16 6.33321 16 6.32818 16 6.32316C16 6.31813 16 6.31311 16 6.30809C16 6.30307 16 6.29805 16 6.29303C16 6.28801 16 6.283 16 6.27799C16 6.27298 16 6.26797 16 6.26296C16 6.25795 16 6.25295 16 6.24794C16 6.24294 16 6.23794 16 6.23294C16 6.22794 16 6.22295 16 6.21796C16 6.21296 16 6.20797 16 6.20298C16 6.19799 16 6.19301 16 6.18802C16 6.18304 16 6.17806 16 6.17308C16 6.1681 16 6.16312 16 6.15815C16 6.15317 16 6.1482 16 6.14323C16 6.13826 16 6.13329 16 6.12833C16 6.12336 16 6.1184 16 6.11344C16 6.10848 16 6.10352 16 6.09856C16 6.09361 16 6.08865 16 6.0837C16 6.07875 16 6.0738 16 6.06886C16 6.06391 16 6.05897 16 6.05403C16 6.04908 16 6.04415 16 6.03921C16 6.03427 16 6.02934 16 6.02441C16 6.01947 16 6.01454 16 6.00962C16 6.00469 16 5.99977 16 5.99484C16 5.98992 16 5.985 16 5.98008C16 5.97517 16 5.97025 16 5.96534C16 5.96043 16 5.95552 16 5.95061C16 5.9457 16 5.9408 16 5.93589C16 5.93099 16 5.92609 16 5.92119C16 5.91629 16 5.9114 16 5.90651C16 5.90161 16 5.89672 16 5.89183C16 5.88695 16 5.88206 16 5.87718C16 5.87229 16 5.86741 16 5.86253C16 5.85766 16 5.85278 16 5.84791C16 5.84303 16 5.83816 16 5.83329C16 5.82843 16 5.82356 16 5.8187C16 5.81383 16 5.80897 16 5.80411C16 5.79926 16 5.7944 16 5.78955C16 5.78469 16 5.77984 16 5.77499C16 5.77014 16 5.7653 16 5.76046C16 5.75561 16 5.75077 16 5.74593C16 5.74109 16 5.73626 16 5.73142C16 5.72659 16 5.72176 16 5.71693C16 5.7121 16 5.70728 16 5.70245C16 5.69763 16 5.69281 16 5.68799C16 5.68317 16 5.67836 16 5.67355C16 5.66873 16 5.66392 16 5.65911C16 5.65431 16 5.6495 16 5.6447C16 5.63989 16 5.63509 16 5.6303C16 5.6255 16 5.6207 16 5.61591C16 5.61112 16 5.60633 16 5.60154C16 5.59675 16 5.59197 16 5.58719C16 5.5824 16 5.57762 16 5.57285C16 5.56807 16 5.56329 16 5.55852C16 5.55375 16 5.54898 16 5.54421C16 5.53945 16 5.53468 16 5.52992C16 5.52516 16 5.5204 16 5.51564C16 5.51089 16 5.50613 16 5.50138C16 5.49663 16 5.49188 16 5.48714C16 5.48239 16 5.47765 16 5.47291C16 5.46817 16 5.46343 16 5.45869C16 5.45396 16 5.44922 16 5.44449C16 5.43976 16 5.43504 16 5.43031C16 5.42559 16 5.42086 16 5.41614C16 5.41142 16 5.40671 16 5.40199C16 5.39728 16 5.39257 16 5.38786C16 5.38315 16 5.37844 16 5.37374C16 5.36903 16 5.36433 16 5.35963C16 5.35494 16 5.35024 16 5.34555C16 5.34086 16 5.33616 16 5.33148C16 5.32679 16 5.3221 16 5.31742C16 5.31274 16 5.30806 16 5.30338C16 5.29871 16 5.29403 16 5.28936C16 5.28469 16 5.28002 16 5.27535C16 5.27069 16 5.26602 16 5.26136C16 5.2567 16 5.25205 16 5.24739C16 5.24273 16 5.23808 16 5.23343C16 5.22878 16 5.22414 16 5.21949C16 5.21485 16 5.21021 16 5.20557C16 5.20093 16 5.19629 16 5.19166C16 5.18702 16 5.18239 16 5.17777C16 5.17314 16 5.16851 16 5.16389C16 5.15927 16 5.15465 16 5.15003C16 5.14541 16 5.1408 16 5.13619C16 5.13158 16 5.12697 16 5.12236C16 5.11776 16 5.11315 16 5.10855C16 5.10395 16 5.09936 16 5.09476C16 5.09017 16 5.08557 16 5.08099C16 5.0764 16 5.07181 16 5.06723C16 5.06264 16 5.05806 16 5.05348C16 5.04891 16 5.04433 16 5.03976C16 5.03519 16 5.03062 16 5.02605C16 5.02148 16 5.01692 16 5.01236C16 5.0078 16 5.00324 16 4.99868H14ZM2 19V5H0V19H2ZM11 2C11.9711 2 12.5988 2.00212 13.0613 2.06431C13.495 2.12262 13.631 2.21677 13.7071 2.29289L15.1213 0.87868C14.6117 0.369017 13.9833 0.170272 13.3278 0.0821405C12.701 -0.00212371 11.9145 0 11 0V2ZM16 4.99868C16 4.08459 16.0021 3.29839 15.9179 2.67183C15.8297 2.01643 15.6309 1.38827 15.1213 0.87868L13.7071 2.29289C13.7833 2.36909 13.8774 2.50501 13.9357 2.93843C13.9979 3.40068 14 4.02803 14 4.99868H16ZM5 0C4.08546 0 3.29896 -0.00212371 2.67221 0.0821405C2.01669 0.170272 1.38834 0.369017 0.87868 0.87868L2.29289 2.29289C2.36902 2.21677 2.50496 2.12262 2.9387 2.06431C3.40121 2.00212 4.02892 2 5 2V0ZM2 5C2 4.02892 2.00212 3.40121 2.06431 2.9387C2.12262 2.50496 2.21677 2.36902 2.29289 2.29289L0.87868 0.87868C0.369017 1.38834 0.170272 2.01669 0.0821405 2.67221C-0.00212371 3.29896 0 4.08546 0 5H2Z" fill="#343434"/>
<path id="Rectangle 14" d="M11 1H5V17H11C12.8856 17 13.8284 17 14.4142 16.4142C15 15.8284 15 14.8858 15 13.0005V4.99879C15 3.11398 15 2.17157 14.4142 1.58579C13.8284 1 12.8856 1 11 1Z" stroke="#343434" stroke-width="2"/>
<path id="Rectangle 47" d="M15 22C15.5523 22 16 21.5523 16 21C16 20.4477 15.5523 20 15 20V22ZM13.4615 17.3853L12.9817 16.5079L13.4615 17.3853ZM14.7322 16.6322L15.4644 17.3133L14.7322 16.6322ZM14.9489 16.2667L14 15.9511L14.9489 16.2667ZM15 20H2.99999V22H15V20ZM2.99999 18H11.9179V16H2.99999V18ZM15 21C15 20 15.0004 20 15.0008 20C15.0009 20 15.0012 20 15.0015 20C15.0019 20 15.0023 20 15.0027 20C15.0034 20 15.0041 20 15.0045 20C15.0055 20 15.0059 20 15.0057 20C15.0054 20 15.003 20 14.9986 19.9999C14.9897 19.9996 14.973 19.9991 14.9496 19.9977C14.9026 19.995 14.8303 19.9894 14.7415 19.9775C14.5589 19.9532 14.3331 19.9062 14.1214 19.8215C13.9075 19.736 13.7543 19.6306 13.6588 19.5161C13.5782 19.4192 13.5 19.2723 13.5 19H11.5C11.5 19.7277 11.7343 20.3308 12.1224 20.7964C12.4957 21.2444 12.9675 21.514 13.3786 21.6785C13.7919 21.8438 14.1911 21.9218 14.4772 21.96C14.6229 21.9794 14.7459 21.9893 14.8355 21.9945C14.8805 21.997 14.9175 21.9984 14.9453 21.9992C14.9592 21.9995 14.9708 21.9997 14.9799 21.9999C14.9845 21.9999 14.9885 22 14.9918 22C14.9935 22 14.995 22 14.9964 22C14.9971 22 14.9977 22 14.9983 22C14.9986 22 14.999 22 14.9992 22C14.9996 22 15 22 15 21ZM13.5 19C13.5 18.7645 13.5588 18.627 13.6185 18.5378C13.6841 18.4398 13.7879 18.3466 13.9413 18.2627L12.9817 16.5079C12.2235 16.9226 11.5 17.7086 11.5 19H13.5ZM16 15.3999C16 15.3984 16 15.397 16 15.3955C16 15.394 16 15.3925 16 15.3911C16 15.3896 16 15.3881 16 15.3867C16 15.3852 16 15.3837 16 15.3823C16 15.3808 16 15.3793 16 15.3779C16 15.3764 16 15.3749 16 15.3735C16 15.372 16 15.3705 16 15.3691C16 15.3676 16 15.3661 16 15.3647C16 15.3632 16 15.3617 16 15.3603C16 15.3588 16 15.3573 16 15.3559C16 15.3544 16 15.353 16 15.3515C16 15.35 16 15.3486 16 15.3471C16 15.3456 16 15.3442 16 15.3427C16 15.3412 16 15.3398 16 15.3383C16 15.3369 16 15.3354 16 15.3339C16 15.3325 16 15.331 16 15.3295C16 15.3281 16 15.3266 16 15.3251C16 15.3237 16 15.3222 16 15.3208C16 15.3193 16 15.3178 16 15.3164C16 15.3149 16 15.3135 16 15.312C16 15.3105 16 15.3091 16 15.3076C16 15.3061 16 15.3047 16 15.3032C16 15.3018 16 15.3003 16 15.2988C16 15.2974 16 15.2959 16 15.2945C16 15.293 16 15.2915 16 15.2901C16 15.2886 16 15.2872 16 15.2857C16 15.2842 16 15.2828 16 15.2813C16 15.2799 16 15.2784 16 15.2769C16 15.2755 16 15.274 16 15.2726C16 15.2711 16 15.2697 16 15.2682C16 15.2667 16 15.2653 16 15.2638C16 15.2624 16 15.2609 16 15.2594C16 15.258 16 15.2565 16 15.2551C16 15.2536 16 15.2522 16 15.2507C16 15.2492 16 15.2478 16 15.2463C16 15.2449 16 15.2434 16 15.242C16 15.2405 16 15.239 16 15.2376C16 15.2361 16 15.2347 16 15.2332C16 15.2318 16 15.2303 16 15.2289C16 15.2274 16 15.2259 16 15.2245C16 15.223 16 15.2216 16 15.2201C16 15.2187 16 15.2172 16 15.2158C16 15.2143 16 15.2128 16 15.2114C16 15.2099 16 15.2085 16 15.207C16 15.2056 16 15.2041 16 15.2027C16 15.2012 16 15.1998 16 15.1983C16 15.1968 16 15.1954 16 15.1939C16 15.1925 16 15.191 16 15.1896C16 15.1881 16 15.1867 16 15.1852C16 15.1838 16 15.1823 16 15.1808C16 15.1794 16 15.1779 16 15.1765C16 15.175 16 15.1736 16 15.1721C16 15.1707 16 15.1692 16 15.1678C16 15.1663 16 15.1649 16 15.1634C16 15.162 16 15.1605 16 15.1591C16 15.1576 16 15.1561 16 15.1547C16 15.1532 16 15.1518 16 15.1503C16 15.1489 16 15.1474 16 15.146C16 15.1445 16 15.1431 16 15.1416C16 15.1402 16 15.1387 16 15.1373C16 15.1358 16 15.1344 16 15.1329C16 15.1315 16 15.13 16 15.1286C16 15.1271 16 15.1257 16 15.1242C16 15.1228 16 15.1213 16 15.1198C16 15.1184 16 15.1169 16 15.1155C16 15.114 16 15.1126 16 15.1111C16 15.1097 16 15.1082 16 15.1068C16 15.1053 16 15.1039 16 15.1024C16 15.101 16 15.0995 16 15.0981C16 15.0966 16 15.0952 16 15.0937C16 15.0923 16 15.0908 16 15.0894C16 15.0879 16 15.0865 16 15.085C16 15.0836 16 15.0821 16 15.0807C16 15.0792 16 15.0778 16 15.0763C16 15.0749 16 15.0734 16 15.072C16 15.0705 16 15.0691 16 15.0676C16 15.0662 16 15.0647 16 15.0633C16 15.0618 16 15.0604 16 15.0589C16 15.0575 16 15.056 16 15.0546C16 15.0531 16 15.0517 16 15.0502C16 15.0488 16 15.0473 16 15.0459C16 15.0444 16 15.043 16 15.0415C16 15.0401 16 15.0386 16 15.0372C16 15.0357 16 15.0343 16 15.0328C16 15.0314 16 15.0299 16 15.0285C16 15.027 16 15.0256 16 15.0241C16 15.0227 16 15.0212 16 15.0198C16 15.0183 16 15.0169 16 15.0154C16 15.014 16 15.0125 16 15.0111C16 15.0096 16 15.0082 16 15.0067C16 15.0053 16 15.0038 16 15.0024C16 15.0009 16 14.9995 16 14.998C16 14.9966 16 14.9951 16 14.9937C16 14.9922 16 14.9908 16 14.9893C16 14.9879 16 14.9864 16 14.985C16 14.9835 16 14.9821 16 14.9806C16 14.9792 16 14.9777 16 14.9763C16 14.9748 16 14.9734 16 14.9719C16 14.9705 16 14.969 16 14.9676C16 14.9661 16 14.9647 16 14.9632C16 14.9618 16 14.9603 16 14.9589C16 14.9574 16 14.956 16 14.9545C16 14.9531 16 14.9516 16 14.9502C16 14.9487 16 14.9473 16 14.9458C16 14.9444 16 14.9429 16 14.9415C16 14.94 16 14.9386 16 14.9371C16 14.9357 16 14.9342 16 14.9328C16 14.9313 16 14.9299 16 14.9284C16 14.927 16 14.9255 16 14.9241C16 14.9226 16 14.9212 16 14.9197C16 14.9183 16 14.9168 16 14.9154C16 14.9139 16 14.9125 16 14.911C16 14.9096 16 14.9081 16 14.9067C16 14.9052 16 14.9038 16 14.9023C16 14.9009 16 14.8994 16 14.898C16 14.8965 16 14.8951 16 14.8936C16 14.8922 16 14.8907 16 14.8893C16 14.8878 16 14.8864 16 14.8849C16 14.8835 16 14.882 16 14.8806C16 14.8791 16 14.8777 16 14.8762C16 14.8748 16 14.8733 16 14.8719C16 14.8704 16 14.869 16 14.8675C16 14.8661 16 14.8646 16 14.8632C16 14.8617 16 14.8603 16 14.8588C16 14.8573 16 14.8559 16 14.8544C16 14.853 16 14.8515 16 14.8501C16 14.8486 16 14.8472 16 14.8457C16 14.8443 16 14.8428 16 14.8414C16 14.8399 16 14.8385 16 14.837C16 14.8356 16 14.8341 16 14.8327C16 14.8312 16 14.8297 16 14.8283C16 14.8268 16 14.8254 16 14.8239C16 14.8225 16 14.821 16 14.8196C16 14.8181 16 14.8167 16 14.8152C16 14.8138 16 14.8123 16 14.8109C16 14.8094 16 14.8079 16 14.8065C16 14.805 16 14.8036 16 14.8021C16 14.8007 16 14.7992 16 14.7978C16 14.7963 16 14.7949 16 14.7934C16 14.7919 16 14.7905 16 14.789C16 14.7876 16 14.7861 16 14.7847C16 14.7832 16 14.7818 16 14.7803C16 14.7788 16 14.7774 16 14.7759C16 14.7745 16 14.773 16 14.7716C16 14.7701 16 14.7687 16 14.7672C16 14.7657 16 14.7643 16 14.7628C16 14.7614 16 14.7599 16 14.7585C16 14.757 16 14.7555 16 14.7541C16 14.7526 16 14.7512 16 14.7497C16 14.7483 16 14.7468 16 14.7453C16 14.7439 16 14.7424 16 14.741C16 14.7395 16 14.7381 16 14.7366C16 14.7351 16 14.7337 16 14.7322C16 14.7308 16 14.7293 16 14.7279C16 14.7264 16 14.7249 16 14.7235C16 14.722 16 14.7206 16 14.7191C16 14.7176 16 14.7162 16 14.7147C16 14.7133 16 14.7118 16 14.7103C16 14.7089 16 14.7074 16 14.706C16 14.7045 16 14.703 16 14.7016C16 14.7001 16 14.6987 16 14.6972C16 14.6957 16 14.6943 16 14.6928C16 14.6914 16 14.6899 16 14.6884C16 14.687 16 14.6855 16 14.6841C16 14.6826 16 14.6811 16 14.6797C16 14.6782 16 14.6767 16 14.6753C16 14.6738 16 14.6724 16 14.6709C16 14.6694 16 14.668 16 14.6665C16 14.665 16 14.6636 16 14.6621C16 14.6606 16 14.6592 16 14.6577C16 14.6563 16 14.6548 16 14.6533C16 14.6519 16 14.6504 16 14.6489C16 14.6475 16 14.646 16 14.6445C16 14.6431 16 14.6416 16 14.6401C16 14.6387 16 14.6372 16 14.6358C16 14.6343 16 14.6328 16 14.6314C16 14.6299 16 14.6284 16 14.627C16 14.6255 16 14.624 16 14.6226C16 14.6211 16 14.6196 16 14.6182C16 14.6167 16 14.6152 16 14.6138C16 14.6123 16 14.6108 16 14.6093C16 14.6079 16 14.6064 16 14.6049C16 14.6035 16 14.602 16 14.6005C16 14.5991 16 14.5976 16 14.5961C16 14.5947 16 14.5932 16 14.5917C16 14.5903 16 14.5888 16 14.5873C16 14.5858 16 14.5844 16 14.5829C16 14.5814 16 14.58 16 14.5785C16 14.577 16 14.5755 16 14.5741C16 14.5726 16 14.5711 16 14.5697C16 14.5682 16 14.5667 16 14.5652C16 14.5638 16 14.5623 16 14.5608C16 14.5594 16 14.5579 16 14.5564C16 14.5549 16 14.5535 16 14.552C16 14.5505 16 14.549 16 14.5476C16 14.5461 16 14.5446 16 14.5431C16 14.5417 16 14.5402 16 14.5387C16 14.5372 16 14.5358 16 14.5343C16 14.5328 16 14.5313 16 14.5299C16 14.5284 16 14.5269 16 14.5254C16 14.524 16 14.5225 16 14.521C16 14.5195 16 14.518 16 14.5166C16 14.5151 16 14.5136 16 14.5121C16 14.5107 16 14.5092 16 14.5077C16 14.5062 16 14.5047 16 14.5033C16 14.5018 16 14.5003 16 14.4988C16 14.4973 16 14.4959 16 14.4944C16 14.4929 16 14.4914 16 14.4899C16 14.4885 16 14.487 16 14.4855C16 14.484 16 14.4825 16 14.4811C16 14.4796 16 14.4781 16 14.4766C16 14.4751 16 14.4736 16 14.4722C16 14.4707 16 14.4692 16 14.4677C16 14.4662 16 14.4647 16 14.4633C16 14.4618 16 14.4603 16 14.4588C16 14.4573 16 14.4558 16 14.4543C16 14.4529 16 14.4514 16 14.4499C16 14.4484 16 14.4469 16 14.4454C16 14.4439 16 14.4425 16 14.441C16 14.4395 16 14.438 16 14.4365C16 14.435 16 14.4335 16 14.432C16 14.4306 16 14.4291 16 14.4276C16 14.4261 16 14.4246 16 14.4231C16 14.4216 16 14.4201 16 14.4186C16 14.4172 16 14.4157 16 14.4142C16 14.4127 16 14.4112 16 14.4097C16 14.4082 16 14.4067 16 14.4052C16 14.4037 16 14.4022 16 14.4007C16 14.3993 16 14.3978 16 14.3963C16 14.3948 16 14.3933 16 14.3918C16 14.3903 16 14.3888 16 14.3873C16 14.3858 16 14.3843 16 14.3828C16 14.3813 16 14.3798 16 14.3783C16 14.3768 16 14.3753 16 14.3738C16 14.3723 16 14.3709 16 14.3694C16 14.3679 16 14.3664 16 14.3649C16 14.3634 16 14.3619 16 14.3604C16 14.3589 16 14.3574 16 14.3559C16 14.3544 16 14.3529 16 14.3514C16 14.3499 16 14.3484 16 14.3469C16 14.3454 16 14.3439 16 14.3424C16 14.3409 16 14.3394 16 14.3379C16 14.3364 16 14.3349 16 14.3334C16 14.3319 16 14.3304 16 14.3289C16 14.3273 16 14.3258 16 14.3243C16 14.3228 16 14.3213 16 14.3198C16 14.3183 16 14.3168 16 14.3153C16 14.3138 16 14.3123 16 14.3108C16 14.3093 16 14.3078 16 14.3063C16 14.3048 16 14.3033 16 14.3018C16 14.3002 16 14.2987 16 14.2972C16 14.2957 16 14.2942 16 14.2927C16 14.2912 16 14.2897 16 14.2882C16 14.2867 16 14.2852 16 14.2836C16 14.2821 16 14.2806 16 14.2791C16 14.2776 16 14.2761 16 14.2746C16 14.2731 16 14.2716 16 14.27C16 14.2685 16 14.267 16 14.2655C16 14.264 16 14.2625 16 14.261C16 14.2594 16 14.2579 16 14.2564C16 14.2549 16 14.2534 16 14.2519C16 14.2504 16 14.2488 16 14.2473C16 14.2458 16 14.2443 16 14.2428C16 14.2413 16 14.2397 16 14.2382C16 14.2367 16 14.2352 16 14.2337C16 14.2321 16 14.2306 16 14.2291C16 14.2276 16 14.2261 16 14.2245C16 14.223 16 14.2215 16 14.22C16 14.2185 16 14.2169 16 14.2154C16 14.2139 16 14.2124 16 14.2108C16 14.2093 16 14.2078 16 14.2063C16 14.2048 16 14.2032 16 14.2017C16 14.2002 16 14.1987 16 14.1971C16 14.1956 16 14.1941 16 14.1925C16 14.191 16 14.1895 16 14.188C16 14.1864 16 14.1849 16 14.1834C16 14.1819 16 14.1803 16 14.1788C16 14.1773 16 14.1757 16 14.1742C16 14.1727 16 14.1712 16 14.1696C16 14.1681 16 14.1666 16 14.165C16 14.1635 16 14.162 16 14.1604C16 14.1589 16 14.1574 16 14.1558C16 14.1543 16 14.1528 16 14.1512C16 14.1497 16 14.1482 16 14.1466C16 14.1451 16 14.1436 16 14.142C16 14.1405 16 14.1389 16 14.1374C16 14.1359 16 14.1343 16 14.1328C16 14.1313 16 14.1297 16 14.1282C16 14.1266 16 14.1251 16 14.1236C16 14.122 16 14.1205 16 14.1189C16 14.1174 16 14.1159 16 14.1143C16 14.1128 16 14.1112 16 14.1097C16 14.1082 16 14.1066 16 14.1051C16 14.1035 16 14.102 16 14.1004C16 14.0989 16 14.0974 16 14.0958C16 14.0943 16 14.0927 16 14.0912C16 14.0896 16 14.0881 16 14.0865C16 14.085 16 14.0834 16 14.0819C16 14.0803 16 14.0788 16 14.0772C16 14.0757 16 14.0741 16 14.0726C16 14.071 16 14.0695 16 14.0679C16 14.0664 16 14.0648 16 14.0633C16 14.0617 16 14.0602 16 14.0586C16 14.0571 16 14.0555 16 14.054C16 14.0524 16 14.0509 16 14.0493C16 14.0478 16 14.0462 16 14.0446C16 14.0431 16 14.0415 16 14.04C16 14.0384 16 14.0369 16 14.0353C16 14.0337 16 14.0322 16 14.0306C16 14.0291 16 14.0275 16 14.026C16 14.0244 16 14.0228 16 14.0213C16 14.0197 16 14.0181 16 14.0166C16 14.015 16 14.0135 16 14.0119C16 14.0103 16 14.0088 16 14.0072C16 14.0056 16 14.0041 16 14.0025C16 14.001 16 13.9994 16 13.9978C16 13.9963 16 13.9947 16 13.9931C16 13.9916 16 13.99 16 13.9884C16 13.9869 16 13.9853 16 13.9837C16 13.9821 16 13.9806 16 13.979C16 13.9774 16 13.9759 16 13.9743C16 13.9727 16 13.9712 16 13.9696C16 13.968 16 13.9664 16 13.9649C16 13.9633 16 13.9617 16 13.9601C16 13.9586 16 13.957 16 13.9554C16 13.9538 16 13.9523 16 13.9507C16 13.9491 16 13.9475 16 13.946C16 13.9444 16 13.9428 16 13.9412C16 13.9396 16 13.9381 16 13.9365C16 13.9349 16 13.9333 16 13.9317C16 13.9302 16 13.9286 16 13.927C16 13.9254 16 13.9238 16 13.9223C16 13.9207 16 13.9191 16 13.9175C16 13.9159 16 13.9143 16 13.9127C16 13.9112 16 13.9096 16 13.908C16 13.9064 16 13.9048 16 13.9032C16 13.9016 16 13.9001 16 13.8985C16 13.8969 16 13.8953 16 13.8937C16 13.8921 16 13.8905 16 13.8889C16 13.8873 16 13.8857 16 13.8842C16 13.8826 16 13.881 16 13.8794C16 13.8778 16 13.8762 16 13.8746C16 13.873 16 13.8714 16 13.8698C16 13.8682 16 13.8666 16 13.865C16 13.8634 16 13.8618 16 13.8602C16 13.8586 16 13.857 16 13.8554C16 13.8538 16 13.8522 16 13.8506C16 13.849 16 13.8474 16 13.8458C16 13.8442 16 13.8426 16 13.841C16 13.8394 16 13.8378 16 13.8362C16 13.8346 16 13.833 16 13.8314C16 13.8298 16 13.8282 16 13.8266C16 13.825 16 13.8234 16 13.8218C16 13.8202 16 13.8185 16 13.8169C16 13.8153 16 13.8137 16 13.8121C16 13.8105 16 13.8089 16 13.8073C16 13.8057 16 13.8041 16 13.8024C16 13.8008 16 13.7992 16 13.7976C16 13.796 16 13.7944 16 13.7928C16 13.7912 16 13.7895 16 13.7879C16 13.7863 16 13.7847 16 13.7831C16 13.7815 16 13.7798 16 13.7782C16 13.7766 16 13.775 16 13.7734C16 13.7717 16 13.7701 16 13.7685C16 13.7669 16 13.7653 16 13.7636C16 13.762 16 13.7604 16 13.7588C16 13.7571 16 13.7555 16 13.7539C16 13.7523 16 13.7506 16 13.749C16 13.7474 16 13.7458 16 13.7441C16 13.7425 16 13.7409 16 13.7393C16 13.7376 16 13.736 16 13.7344C16 13.7327 16 13.7311 16 13.7295C16 13.7278 16 13.7262 16 13.7246C16 13.7229 16 13.7213 16 13.7197C16 13.718 16 13.7164 16 13.7148C16 13.7131 16 13.7115 16 13.7099C16 13.7082 16 13.7066 16 13.705C16 13.7033 16 13.7017 16 13.7C16 13.6984 16 13.6968 16 13.6951C16 13.6935 16 13.6918 16 13.6902C16 13.6886 16 13.6869 16 13.6853C16 13.6836 16 13.682 16 13.6803C16 13.6787 16 13.6771 16 13.6754C16 13.6738 16 13.6721 16 13.6705C16 13.6688 16 13.6672 16 13.6655C16 13.6639 16 13.6622 16 13.6606C16 13.6589 16 13.6573 16 13.6556C16 13.654 16 13.6523 16 13.6507C16 13.649 16 13.6474 16 13.6457C16 13.6441 16 13.6424 16 13.6408C16 13.6391 16 13.6374 16 13.6358C16 13.6341 16 13.6325 16 13.6308C16 13.6292 16 13.6275 16 13.6258C16 13.6242 16 13.6225 16 13.6209C16 13.6192 16 13.6175 16 13.6159C16 13.6142 16 13.6125 16 13.6109C16 13.6092 16 13.6076 16 13.6059C16 13.6042 16 13.6026 16 13.6009C16 13.5992 16 13.5976 16 13.5959C16 13.5942 16 13.5926 16 13.5909C16 13.5892 16 13.5875 16 13.5859C16 13.5842 16 13.5825 16 13.5809C16 13.5792 16 13.5775 16 13.5758C16 13.5742 16 13.5725 16 13.5708C16 13.5691 16 13.5675 16 13.5658C16 13.5641 16 13.5624 16 13.5608C16 13.5591 16 13.5574 16 13.5557C16 13.554 16 13.5524 16 13.5507C16 13.549 16 13.5473 16 13.5456C16 13.544 16 13.5423 16 13.5406C16 13.5389 16 13.5372 16 13.5355C16 13.5339 16 13.5322 16 13.5305C16 13.5288 16 13.5271 16 13.5254C16 13.5237 16 13.522 16 13.5204C16 13.5187 16 13.517 16 13.5153C16 13.5136 16 13.5119 16 13.5102C16 13.5085 16 13.5068 16 13.5051C16 13.5034 16 13.5017 16 13.5C16 13.4983 16 13.4967 16 13.495C16 13.4933 16 13.4916 16 13.4899C16 13.4882 16 13.4865 16 13.4848C16 13.4831 16 13.4814 16 13.4797C16 13.478 16 13.4763 16 13.4746C16 13.4729 16 13.4711 16 13.4694C16 13.4677 16 13.466 16 13.4643C16 13.4626 16 13.4609 16 13.4592C16 13.4575 16 13.4558 16 13.4541C16 13.4524 16 13.4507 16 13.4489C16 13.4472 16 13.4455 16 13.4438C16 13.4421 16 13.4404 16 13.4387C16 13.437 16 13.4352 16 13.4335C16 13.4318 16 13.4301 16 13.4284C16 13.4267 16 13.4249 16 13.4232C16 13.4215 16 13.4198 16 13.4181C16 13.4163 16 13.4146 16 13.4129C16 13.4112 16 13.4095 16 13.4077C16 13.406 16 13.4043 16 13.4026C16 13.4008 16 13.3991 16 13.3974C16 13.3957 16 13.3939 16 13.3922C16 13.3905 16 13.3887 16 13.387C16 13.3853 16 13.3836 16 13.3818C16 13.3801 16 13.3784 16 13.3766C16 13.3749 16 13.3732 16 13.3714C16 13.3697 16 13.368 16 13.3662C16 13.3645 16 13.3627 16 13.361C16 13.3593 16 13.3575 16 13.3558C16 13.3541 16 13.3523 16 13.3506C16 13.3488 16 13.3471 16 13.3453C16 13.3436 16 13.3419 16 13.3401C16 13.3384 16 13.3366 16 13.3349C16 13.3331 16 13.3314 16 13.3296C16 13.3279 16 13.3261 16 13.3244C16 13.3226 16 13.3209 16 13.3191C16 13.3174 16 13.3156 16 13.3139C16 13.3121 16 13.3104 16 13.3086C16 13.3069 16 13.3051 16 13.3034C16 13.3016 16 13.2998 16 13.2981C16 13.2963 16 13.2946 16 13.2928C16 13.2911 16 13.2893 16 13.2875C16 13.2858 16 13.284 16 13.2822C16 13.2805 16 13.2787 16 13.277C16 13.2752 16 13.2734 16 13.2717C16 13.2699 16 13.2681 16 13.2664C16 13.2646 16 13.2628 16 13.261C16 13.2593 16 13.2575 16 13.2557C16 13.254 16 13.2522 16 13.2504C16 13.2486 16 13.2469 16 13.2451C16 13.2433 16 13.2415 16 13.2398C16 13.238 16 13.2362 16 13.2344C16 13.2327 16 13.2309 16 13.2291C16 13.2273 16 13.2255 16 13.2238C16 13.222 16 13.2202 16 13.2184C16 13.2166 16 13.2148 16 13.2131C16 13.2113 16 13.2095 16 13.2077C16 13.2059 16 13.2041 16 13.2023C16 13.2005 16 13.1988 16 13.197C16 13.1952 16 13.1934 16 13.1916C16 13.1898 16 13.188 16 13.1862C16 13.1844 16 13.1826 16 13.1808C16 13.179 16 13.1772 16 13.1754C16 13.1736 16 13.1718 16 13.17C16 13.1682 16 13.1664 16 13.1646C16 13.1628 16 13.161 16 13.1592C16 13.1574 16 13.1556 16 13.1538C16 13.152 16 13.1502 16 13.1484C16 13.1466 16 13.1448 16 13.143C16 13.1412 16 13.1394 16 13.1375C16 13.1357 16 13.1339 16 13.1321C16 13.1303 16 13.1285 16 13.1267C16 13.1249 16 13.123 16 13.1212C16 13.1194 16 13.1176 16 13.1158C16 13.114 16 13.1121 16 13.1103C16 13.1085 16 13.1067 16 13.1049C16 13.103 16 13.1012 16 13.0994C16 13.0976 16 13.0957 16 13.0939C16 13.0921 16 13.0903 16 13.0884C16 13.0866 16 13.0848 16 13.0829C16 13.0811 16 13.0793 16 13.0775C16 13.0756 16 13.0738 16 13.072C16 13.0701 16 13.0683 16 13.0665C16 13.0646 16 13.0628 16 13.061C16 13.0591 16 13.0573 16 13.0554C16 13.0536 16 13.0518 16 13.0499C16 13.0481 16 13.0462 16 13.0444C16 13.0426 16 13.0407 16 13.0389C16 13.037 16 13.0352 16 13.0333C16 13.0315 16 13.0296 16 13.0278C16 13.0259 16 13.0241 16 13.0222C16 13.0204 16 13.0185 16 13.0167C16 13.0148 16 13.013 16 13.0111C16 13.0093 16 13.0074 16 13.0056C16 13.0037 16 13.0019 16 13H14C14 13.0019 14 13.0037 14 13.0056C14 13.0074 14 13.0093 14 13.0111C14 13.013 14 13.0148 14 13.0167C14 13.0185 14 13.0204 14 13.0222C14 13.0241 14 13.0259 14 13.0278C14 13.0296 14 13.0315 14 13.0333C14 13.0352 14 13.037 14 13.0389C14 13.0407 14 13.0426 14 13.0444C14 13.0462 14 13.0481 14 13.0499C14 13.0518 14 13.0536 14 13.0554C14 13.0573 14 13.0591 14 13.061C14 13.0628 14 13.0646 14 13.0665C14 13.0683 14 13.0701 14 13.072C14 13.0738 14 13.0756 14 13.0775C14 13.0793 14 13.0811 14 13.0829C14 13.0848 14 13.0866 14 13.0884C14 13.0903 14 13.0921 14 13.0939C14 13.0957 14 13.0976 14 13.0994C14 13.1012 14 13.103 14 13.1049C14 13.1067 14 13.1085 14 13.1103C14 13.1121 14 13.114 14 13.1158C14 13.1176 14 13.1194 14 13.1212C14 13.123 14 13.1249 14 13.1267C14 13.1285 14 13.1303 14 13.1321C14 13.1339 14 13.1357 14 13.1375C14 13.1394 14 13.1412 14 13.143C14 13.1448 14 13.1466 14 13.1484C14 13.1502 14 13.152 14 13.1538C14 13.1556 14 13.1574 14 13.1592C14 13.161 14 13.1628 14 13.1646C14 13.1664 14 13.1682 14 13.17C14 13.1718 14 13.1736 14 13.1754C14 13.1772 14 13.179 14 13.1808C14 13.1826 14 13.1844 14 13.1862C14 13.188 14 13.1898 14 13.1916C14 13.1934 14 13.1952 14 13.197C14 13.1988 14 13.2005 14 13.2023C14 13.2041 14 13.2059 14 13.2077C14 13.2095 14 13.2113 14 13.2131C14 13.2148 14 13.2166 14 13.2184C14 13.2202 14 13.222 14 13.2238C14 13.2255 14 13.2273 14 13.2291C14 13.2309 14 13.2327 14 13.2344C14 13.2362 14 13.238 14 13.2398C14 13.2415 14 13.2433 14 13.2451C14 13.2469 14 13.2486 14 13.2504C14 13.2522 14 13.254 14 13.2557C14 13.2575 14 13.2593 14 13.261C14 13.2628 14 13.2646 14 13.2664C14 13.2681 14 13.2699 14 13.2717C14 13.2734 14 13.2752 14 13.277C14 13.2787 14 13.2805 14 13.2822C14 13.284 14 13.2858 14 13.2875C14 13.2893 14 13.2911 14 13.2928C14 13.2946 14 13.2963 14 13.2981C14 13.2998 14 13.3016 14 13.3034C14 13.3051 14 13.3069 14 13.3086C14 13.3104 14 13.3121 14 13.3139C14 13.3156 14 13.3174 14 13.3191C14 13.3209 14 13.3226 14 13.3244C14 13.3261 14 13.3279 14 13.3296C14 13.3314 14 13.3331 14 13.3349C14 13.3366 14 13.3384 14 13.3401C14 13.3419 14 13.3436 14 13.3453C14 13.3471 14 13.3488 14 13.3506C14 13.3523 14 13.3541 14 13.3558C14 13.3575 14 13.3593 14 13.361C14 13.3627 14 13.3645 14 13.3662C14 13.368 14 13.3697 14 13.3714C14 13.3732 14 13.3749 14 13.3766C14 13.3784 14 13.3801 14 13.3818C14 13.3836 14 13.3853 14 13.387C14 13.3887 14 13.3905 14 13.3922C14 13.3939 14 13.3957 14 13.3974C14 13.3991 14 13.4008 14 13.4026C14 13.4043 14 13.406 14 13.4077C14 13.4095 14 13.4112 14 13.4129C14 13.4146 14 13.4163 14 13.4181C14 13.4198 14 13.4215 14 13.4232C14 13.4249 14 13.4267 14 13.4284C14 13.4301 14 13.4318 14 13.4335C14 13.4352 14 13.437 14 13.4387C14 13.4404 14 13.4421 14 13.4438C14 13.4455 14 13.4472 14 13.4489C14 13.4507 14 13.4524 14 13.4541C14 13.4558 14 13.4575 14 13.4592C14 13.4609 14 13.4626 14 13.4643C14 13.466 14 13.4677 14 13.4694C14 13.4711 14 13.4729 14 13.4746C14 13.4763 14 13.478 14 13.4797C14 13.4814 14 13.4831 14 13.4848C14 13.4865 14 13.4882 14 13.4899C14 13.4916 14 13.4933 14 13.495C14 13.4967 14 13.4983 14 13.5C14 13.5017 14 13.5034 14 13.5051C14 13.5068 14 13.5085 14 13.5102C14 13.5119 14 13.5136 14 13.5153C14 13.517 14 13.5187 14 13.5204C14 13.522 14 13.5237 14 13.5254C14 13.5271 14 13.5288 14 13.5305C14 13.5322 14 13.5339 14 13.5355C14 13.5372 14 13.5389 14 13.5406C14 13.5423 14 13.544 14 13.5456C14 13.5473 14 13.549 14 13.5507C14 13.5524 14 13.554 14 13.5557C14 13.5574 14 13.5591 14 13.5608C14 13.5624 14 13.5641 14 13.5658C14 13.5675 14 13.5691 14 13.5708C14 13.5725 14 13.5742 14 13.5758C14 13.5775 14 13.5792 14 13.5809C14 13.5825 14 13.5842 14 13.5859C14 13.5875 14 13.5892 14 13.5909C14 13.5926 14 13.5942 14 13.5959C14 13.5976 14 13.5992 14 13.6009C14 13.6026 14 13.6042 14 13.6059C14 13.6076 14 13.6092 14 13.6109C14 13.6125 14 13.6142 14 13.6159C14 13.6175 14 13.6192 14 13.6209C14 13.6225 14 13.6242 14 13.6258C14 13.6275 14 13.6292 14 13.6308C14 13.6325 14 13.6341 14 13.6358C14 13.6374 14 13.6391 14 13.6408C14 13.6424 14 13.6441 14 13.6457C14 13.6474 14 13.649 14 13.6507C14 13.6523 14 13.654 14 13.6556C14 13.6573 14 13.6589 14 13.6606C14 13.6622 14 13.6639 14 13.6655C14 13.6672 14 13.6688 14 13.6705C14 13.6721 14 13.6738 14 13.6754C14 13.6771 14 13.6787 14 13.6803C14 13.682 14 13.6836 14 13.6853C14 13.6869 14 13.6886 14 13.6902C14 13.6918 14 13.6935 14 13.6951C14 13.6968 14 13.6984 14 13.7C14 13.7017 14 13.7033 14 13.705C14 13.7066 14 13.7082 14 13.7099C14 13.7115 14 13.7131 14 13.7148C14 13.7164 14 13.718 14 13.7197C14 13.7213 14 13.7229 14 13.7246C14 13.7262 14 13.7278 14 13.7295C14 13.7311 14 13.7327 14 13.7344C14 13.736 14 13.7376 14 13.7393C14 13.7409 14 13.7425 14 13.7441C14 13.7458 14 13.7474 14 13.749C14 13.7506 14 13.7523 14 13.7539C14 13.7555 14 13.7571 14 13.7588C14 13.7604 14 13.762 14 13.7636C14 13.7653 14 13.7669 14 13.7685C14 13.7701 14 13.7717 14 13.7734C14 13.775 14 13.7766 14 13.7782C14 13.7798 14 13.7815 14 13.7831C14 13.7847 14 13.7863 14 13.7879C14 13.7895 14 13.7912 14 13.7928C14 13.7944 14 13.796 14 13.7976C14 13.7992 14 13.8008 14 13.8024C14 13.8041 14 13.8057 14 13.8073C14 13.8089 14 13.8105 14 13.8121C14 13.8137 14 13.8153 14 13.8169C14 13.8185 14 13.8202 14 13.8218C14 13.8234 14 13.825 14 13.8266C14 13.8282 14 13.8298 14 13.8314C14 13.833 14 13.8346 14 13.8362C14 13.8378 14 13.8394 14 13.841C14 13.8426 14 13.8442 14 13.8458C14 13.8474 14 13.849 14 13.8506C14 13.8522 14 13.8538 14 13.8554C14 13.857 14 13.8586 14 13.8602C14 13.8618 14 13.8634 14 13.865C14 13.8666 14 13.8682 14 13.8698C14 13.8714 14 13.873 14 13.8746C14 13.8762 14 13.8778 14 13.8794C14 13.881 14 13.8826 14 13.8842C14 13.8857 14 13.8873 14 13.8889C14 13.8905 14 13.8921 14 13.8937C14 13.8953 14 13.8969 14 13.8985C14 13.9001 14 13.9016 14 13.9032C14 13.9048 14 13.9064 14 13.908C14 13.9096 14 13.9112 14 13.9127C14 13.9143 14 13.9159 14 13.9175C14 13.9191 14 13.9207 14 13.9223C14 13.9238 14 13.9254 14 13.927C14 13.9286 14 13.9302 14 13.9317C14 13.9333 14 13.9349 14 13.9365C14 13.9381 14 13.9396 14 13.9412C14 13.9428 14 13.9444 14 13.946C14 13.9475 14 13.9491 14 13.9507C14 13.9523 14 13.9538 14 13.9554C14 13.957 14 13.9586 14 13.9601C14 13.9617 14 13.9633 14 13.9649C14 13.9664 14 13.968 14 13.9696C14 13.9712 14 13.9727 14 13.9743C14 13.9759 14 13.9774 14 13.979C14 13.9806 14 13.9821 14 13.9837C14 13.9853 14 13.9869 14 13.9884C14 13.99 14 13.9916 14 13.9931C14 13.9947 14 13.9963 14 13.9978C14 13.9994 14 14.001 14 14.0025C14 14.0041 14 14.0056 14 14.0072C14 14.0088 14 14.0103 14 14.0119C14 14.0135 14 14.015 14 14.0166C14 14.0181 14 14.0197 14 14.0213C14 14.0228 14 14.0244 14 14.026C14 14.0275 14 14.0291 14 14.0306C14 14.0322 14 14.0337 14 14.0353C14 14.0369 14 14.0384 14 14.04C14 14.0415 14 14.0431 14 14.0446C14 14.0462 14 14.0478 14 14.0493C14 14.0509 14 14.0524 14 14.054C14 14.0555 14 14.0571 14 14.0586C14 14.0602 14 14.0617 14 14.0633C14 14.0648 14 14.0664 14 14.0679C14 14.0695 14 14.071 14 14.0726C14 14.0741 14 14.0757 14 14.0772C14 14.0788 14 14.0803 14 14.0819C14 14.0834 14 14.085 14 14.0865C14 14.0881 14 14.0896 14 14.0912C14 14.0927 14 14.0943 14 14.0958C14 14.0974 14 14.0989 14 14.1004C14 14.102 14 14.1035 14 14.1051C14 14.1066 14 14.1082 14 14.1097C14 14.1112 14 14.1128 14 14.1143C14 14.1159 14 14.1174 14 14.1189C14 14.1205 14 14.122 14 14.1236C14 14.1251 14 14.1266 14 14.1282C14 14.1297 14 14.1313 14 14.1328C14 14.1343 14 14.1359 14 14.1374C14 14.1389 14 14.1405 14 14.142C14 14.1436 14 14.1451 14 14.1466C14 14.1482 14 14.1497 14 14.1512C14 14.1528 14 14.1543 14 14.1558C14 14.1574 14 14.1589 14 14.1604C14 14.162 14 14.1635 14 14.165C14 14.1666 14 14.1681 14 14.1696C14 14.1712 14 14.1727 14 14.1742C14 14.1757 14 14.1773 14 14.1788C14 14.1803 14 14.1819 14 14.1834C14 14.1849 14 14.1864 14 14.188C14 14.1895 14 14.191 14 14.1925C14 14.1941 14 14.1956 14 14.1971C14 14.1987 14 14.2002 14 14.2017C14 14.2032 14 14.2048 14 14.2063C14 14.2078 14 14.2093 14 14.2108C14 14.2124 14 14.2139 14 14.2154C14 14.2169 14 14.2185 14 14.22C14 14.2215 14 14.223 14 14.2245C14 14.2261 14 14.2276 14 14.2291C14 14.2306 14 14.2321 14 14.2337C14 14.2352 14 14.2367 14 14.2382C14 14.2397 14 14.2413 14 14.2428C14 14.2443 14 14.2458 14 14.2473C14 14.2488 14 14.2504 14 14.2519C14 14.2534 14 14.2549 14 14.2564C14 14.2579 14 14.2594 14 14.261C14 14.2625 14 14.264 14 14.2655C14 14.267 14 14.2685 14 14.27C14 14.2716 14 14.2731 14 14.2746C14 14.2761 14 14.2776 14 14.2791C14 14.2806 14 14.2821 14 14.2836C14 14.2852 14 14.2867 14 14.2882C14 14.2897 14 14.2912 14 14.2927C14 14.2942 14 14.2957 14 14.2972C14 14.2987 14 14.3002 14 14.3018C14 14.3033 14 14.3048 14 14.3063C14 14.3078 14 14.3093 14 14.3108C14 14.3123 14 14.3138 14 14.3153C14 14.3168 14 14.3183 14 14.3198C14 14.3213 14 14.3228 14 14.3243C14 14.3258 14 14.3273 14 14.3289C14 14.3304 14 14.3319 14 14.3334C14 14.3349 14 14.3364 14 14.3379C14 14.3394 14 14.3409 14 14.3424C14 14.3439 14 14.3454 14 14.3469C14 14.3484 14 14.3499 14 14.3514C14 14.3529 14 14.3544 14 14.3559C14 14.3574 14 14.3589 14 14.3604C14 14.3619 14 14.3634 14 14.3649C14 14.3664 14 14.3679 14 14.3694C14 14.3709 14 14.3723 14 14.3738C14 14.3753 14 14.3768 14 14.3783C14 14.3798 14 14.3813 14 14.3828C14 14.3843 14 14.3858 14 14.3873C14 14.3888 14 14.3903 14 14.3918C14 14.3933 14 14.3948 14 14.3963C14 14.3978 14 14.3993 14 14.4007C14 14.4022 14 14.4037 14 14.4052C14 14.4067 14 14.4082 14 14.4097C14 14.4112 14 14.4127 14 14.4142C14 14.4157 14 14.4172 14 14.4186C14 14.4201 14 14.4216 14 14.4231C14 14.4246 14 14.4261 14 14.4276C14 14.4291 14 14.4306 14 14.432C14 14.4335 14 14.435 14 14.4365C14 14.438 14 14.4395 14 14.441C14 14.4425 14 14.4439 14 14.4454C14 14.4469 14 14.4484 14 14.4499C14 14.4514 14 14.4529 14 14.4543C14 14.4558 14 14.4573 14 14.4588C14 14.4603 14 14.4618 14 14.4633C14 14.4647 14 14.4662 14 14.4677C14 14.4692 14 14.4707 14 14.4722C14 14.4736 14 14.4751 14 14.4766C14 14.4781 14 14.4796 14 14.4811C14 14.4825 14 14.484 14 14.4855C14 14.487 14 14.4885 14 14.4899C14 14.4914 14 14.4929 14 14.4944C14 14.4959 14 14.4973 14 14.4988C14 14.5003 14 14.5018 14 14.5033C14 14.5047 14 14.5062 14 14.5077C14 14.5092 14 14.5107 14 14.5121C14 14.5136 14 14.5151 14 14.5166C14 14.518 14 14.5195 14 14.521C14 14.5225 14 14.524 14 14.5254C14 14.5269 14 14.5284 14 14.5299C14 14.5313 14 14.5328 14 14.5343C14 14.5358 14 14.5372 14 14.5387C14 14.5402 14 14.5417 14 14.5431C14 14.5446 14 14.5461 14 14.5476C14 14.549 14 14.5505 14 14.552C14 14.5535 14 14.5549 14 14.5564C14 14.5579 14 14.5594 14 14.5608C14 14.5623 14 14.5638 14 14.5652C14 14.5667 14 14.5682 14 14.5697C14 14.5711 14 14.5726 14 14.5741C14 14.5755 14 14.577 14 14.5785C14 14.58 14 14.5814 14 14.5829C14 14.5844 14 14.5858 14 14.5873C14 14.5888 14 14.5903 14 14.5917C14 14.5932 14 14.5947 14 14.5961C14 14.5976 14 14.5991 14 14.6005C14 14.602 14 14.6035 14 14.6049C14 14.6064 14 14.6079 14 14.6093C14 14.6108 14 14.6123 14 14.6138C14 14.6152 14 14.6167 14 14.6182C14 14.6196 14 14.6211 14 14.6226C14 14.624 14 14.6255 14 14.627C14 14.6284 14 14.6299 14 14.6314C14 14.6328 14 14.6343 14 14.6358C14 14.6372 14 14.6387 14 14.6401C14 14.6416 14 14.6431 14 14.6445C14 14.646 14 14.6475 14 14.6489C14 14.6504 14 14.6519 14 14.6533C14 14.6548 14 14.6563 14 14.6577C14 14.6592 14 14.6606 14 14.6621C14 14.6636 14 14.665 14 14.6665C14 14.668 14 14.6694 14 14.6709C14 14.6724 14 14.6738 14 14.6753C14 14.6767 14 14.6782 14 14.6797C14 14.6811 14 14.6826 14 14.6841C14 14.6855 14 14.687 14 14.6884C14 14.6899 14 14.6914 14 14.6928C14 14.6943 14 14.6957 14 14.6972C14 14.6987 14 14.7001 14 14.7016C14 14.703 14 14.7045 14 14.706C14 14.7074 14 14.7089 14 14.7103C14 14.7118 14 14.7133 14 14.7147C14 14.7162 14 14.7176 14 14.7191C14 14.7206 14 14.722 14 14.7235C14 14.7249 14 14.7264 14 14.7279C14 14.7293 14 14.7308 14 14.7322C14 14.7337 14 14.7351 14 14.7366C14 14.7381 14 14.7395 14 14.741C14 14.7424 14 14.7439 14 14.7453C14 14.7468 14 14.7483 14 14.7497C14 14.7512 14 14.7526 14 14.7541C14 14.7555 14 14.757 14 14.7585C14 14.7599 14 14.7614 14 14.7628C14 14.7643 14 14.7657 14 14.7672C14 14.7687 14 14.7701 14 14.7716C14 14.773 14 14.7745 14 14.7759C14 14.7774 14 14.7788 14 14.7803C14 14.7818 14 14.7832 14 14.7847C14 14.7861 14 14.7876 14 14.789C14 14.7905 14 14.7919 14 14.7934C14 14.7949 14 14.7963 14 14.7978C14 14.7992 14 14.8007 14 14.8021C14 14.8036 14 14.805 14 14.8065C14 14.8079 14 14.8094 14 14.8109C14 14.8123 14 14.8138 14 14.8152C14 14.8167 14 14.8181 14 14.8196C14 14.821 14 14.8225 14 14.8239C14 14.8254 14 14.8268 14 14.8283C14 14.8297 14 14.8312 14 14.8327C14 14.8341 14 14.8356 14 14.837C14 14.8385 14 14.8399 14 14.8414C14 14.8428 14 14.8443 14 14.8457C14 14.8472 14 14.8486 14 14.8501C14 14.8515 14 14.853 14 14.8544C14 14.8559 14 14.8573 14 14.8588C14 14.8603 14 14.8617 14 14.8632C14 14.8646 14 14.8661 14 14.8675C14 14.869 14 14.8704 14 14.8719C14 14.8733 14 14.8748 14 14.8762C14 14.8777 14 14.8791 14 14.8806C14 14.882 14 14.8835 14 14.8849C14 14.8864 14 14.8878 14 14.8893C14 14.8907 14 14.8922 14 14.8936C14 14.8951 14 14.8965 14 14.898C14 14.8994 14 14.9009 14 14.9023C14 14.9038 14 14.9052 14 14.9067C14 14.9081 14 14.9096 14 14.911C14 14.9125 14 14.9139 14 14.9154C14 14.9168 14 14.9183 14 14.9197C14 14.9212 14 14.9226 14 14.9241C14 14.9255 14 14.927 14 14.9284C14 14.9299 14 14.9313 14 14.9328C14 14.9342 14 14.9357 14 14.9371C14 14.9386 14 14.94 14 14.9415C14 14.9429 14 14.9444 14 14.9458C14 14.9473 14 14.9487 14 14.9502C14 14.9516 14 14.9531 14 14.9545C14 14.956 14 14.9574 14 14.9589C14 14.9603 14 14.9618 14 14.9632C14 14.9647 14 14.9661 14 14.9676C14 14.969 14 14.9705 14 14.9719C14 14.9734 14 14.9748 14 14.9763C14 14.9777 14 14.9792 14 14.9806C14 14.9821 14 14.9835 14 14.985C14 14.9864 14 14.9879 14 14.9893C14 14.9908 14 14.9922 14 14.9937C14 14.9951 14 14.9966 14 14.998C14 14.9995 14 15.0009 14 15.0024C14 15.0038 14 15.0053 14 15.0067C14 15.0082 14 15.0096 14 15.0111C14 15.0125 14 15.014 14 15.0154C14 15.0169 14 15.0183 14 15.0198C14 15.0212 14 15.0227 14 15.0241C14 15.0256 14 15.027 14 15.0285C14 15.0299 14 15.0314 14 15.0328C14 15.0343 14 15.0357 14 15.0372C14 15.0386 14 15.0401 14 15.0415C14 15.043 14 15.0444 14 15.0459C14 15.0473 14 15.0488 14 15.0502C14 15.0517 14 15.0531 14 15.0546C14 15.056 14 15.0575 14 15.0589C14 15.0604 14 15.0618 14 15.0633C14 15.0647 14 15.0662 14 15.0676C14 15.0691 14 15.0705 14 15.072C14 15.0734 14 15.0749 14 15.0763C14 15.0778 14 15.0792 14 15.0807C14 15.0821 14 15.0836 14 15.085C14 15.0865 14 15.0879 14 15.0894C14 15.0908 14 15.0923 14 15.0937C14 15.0952 14 15.0966 14 15.0981C14 15.0995 14 15.101 14 15.1024C14 15.1039 14 15.1053 14 15.1068C14 15.1082 14 15.1097 14 15.1111C14 15.1126 14 15.114 14 15.1155C14 15.1169 14 15.1184 14 15.1198C14 15.1213 14 15.1228 14 15.1242C14 15.1257 14 15.1271 14 15.1286C14 15.13 14 15.1315 14 15.1329C14 15.1344 14 15.1358 14 15.1373C14 15.1387 14 15.1402 14 15.1416C14 15.1431 14 15.1445 14 15.146C14 15.1474 14 15.1489 14 15.1503C14 15.1518 14 15.1532 14 15.1547C14 15.1561 14 15.1576 14 15.1591C14 15.1605 14 15.162 14 15.1634C14 15.1649 14 15.1663 14 15.1678C14 15.1692 14 15.1707 14 15.1721C14 15.1736 14 15.175 14 15.1765C14 15.1779 14 15.1794 14 15.1808C14 15.1823 14 15.1838 14 15.1852C14 15.1867 14 15.1881 14 15.1896C14 15.191 14 15.1925 14 15.1939C14 15.1954 14 15.1968 14 15.1983C14 15.1998 14 15.2012 14 15.2027C14 15.2041 14 15.2056 14 15.207C14 15.2085 14 15.2099 14 15.2114C14 15.2128 14 15.2143 14 15.2158C14 15.2172 14 15.2187 14 15.2201C14 15.2216 14 15.223 14 15.2245C14 15.2259 14 15.2274 14 15.2289C14 15.2303 14 15.2318 14 15.2332C14 15.2347 14 15.2361 14 15.2376C14 15.239 14 15.2405 14 15.242C14 15.2434 14 15.2449 14 15.2463C14 15.2478 14 15.2492 14 15.2507C14 15.2522 14 15.2536 14 15.2551C14 15.2565 14 15.258 14 15.2594C14 15.2609 14 15.2624 14 15.2638C14 15.2653 14 15.2667 14 15.2682C14 15.2697 14 15.2711 14 15.2726C14 15.274 14 15.2755 14 15.2769C14 15.2784 14 15.2799 14 15.2813C14 15.2828 14 15.2842 14 15.2857C14 15.2872 14 15.2886 14 15.2901C14 15.2915 14 15.293 14 15.2945C14 15.2959 14 15.2974 14 15.2988C14 15.3003 14 15.3018 14 15.3032C14 15.3047 14 15.3061 14 15.3076C14 15.3091 14 15.3105 14 15.312C14 15.3135 14 15.3149 14 15.3164C14 15.3178 14 15.3193 14 15.3208C14 15.3222 14 15.3237 14 15.3251C14 15.3266 14 15.3281 14 15.3295C14 15.331 14 15.3325 14 15.3339C14 15.3354 14 15.3369 14 15.3383C14 15.3398 14 15.3412 14 15.3427C14 15.3442 14 15.3456 14 15.3471C14 15.3486 14 15.35 14 15.3515C14 15.353 14 15.3544 14 15.3559C14 15.3573 14 15.3588 14 15.3603C14 15.3617 14 15.3632 14 15.3647C14 15.3661 14 15.3676 14 15.3691C14 15.3705 14 15.372 14 15.3735C14 15.3749 14 15.3764 14 15.3779C14 15.3793 14 15.3808 14 15.3823C14 15.3837 14 15.3852 14 15.3867C14 15.3881 14 15.3896 14 15.3911C14 15.3925 14 15.394 14 15.3955C14 15.397 14 15.3984 14 15.3999H16ZM0 19C0 20.6569 1.34314 22 2.99999 22V20C2.44771 20 2 19.5523 2 19H0ZM13.9413 18.2627C14.3227 18.0541 14.627 17.8878 14.8486 17.7588C14.9597 17.6942 15.0646 17.6305 15.1555 17.5692C15.2342 17.516 15.3566 17.4291 15.4644 17.3133L14 15.9511C14.0526 15.8945 14.0853 15.8785 14.0363 15.9116C13.9995 15.9364 13.9387 15.9744 13.8426 16.0303C13.6498 16.1425 13.374 16.2934 12.9817 16.5079L13.9413 18.2627ZM14 15.3999C14 15.6474 13.9997 15.7983 13.9947 15.9077C13.9893 16.0236 13.9807 16.009 14 15.9511L15.8978 16.5823C15.9682 16.3707 15.9851 16.1604 15.9925 16.0002C16.0003 15.8335 16 15.6278 16 15.3999H14ZM15.4644 17.3133C15.5158 17.258 15.636 17.1346 15.7297 16.9766C15.8233 16.8186 15.874 16.6539 15.8978 16.5823L14 15.9511C13.996 15.9632 13.9924 15.9737 13.9893 15.9832C13.9861 15.9927 13.9834 16.0005 13.9812 16.007C13.9789 16.0135 13.9772 16.0182 13.976 16.0216C13.9748 16.0249 13.9743 16.0262 13.9744 16.0261C13.9744 16.0261 13.9775 16.018 13.9835 16.0053C13.9898 15.9917 13.9984 15.975 14.0093 15.9566C14.0202 15.9382 14.0308 15.9226 14.0396 15.9106C14.048 15.8992 14.0535 15.8926 14.0536 15.8926C14.0536 15.8925 14.0527 15.8936 14.0503 15.8962C14.048 15.8989 14.0447 15.9026 14.04 15.9077C14.0354 15.9128 14.0299 15.9189 14.0231 15.9262C14.0163 15.9336 14.0087 15.9417 14 15.9511L15.4644 17.3133ZM2 19C2 18.4477 2.44771 18 2.99999 18V16C1.34314 16 0 17.3432 0 19H2Z" fill="#343434"/>
</g>
</svg>
