<svg width="19" height="21" viewBox="0 0 19 21" fill="none" xmlns="http://www.w3.org/2000/svg">
<g id="Group 4">
<path id="Rectangle 46" d="M16.6351 6.14112L16.8708 6.27904C17.335 6.55067 17.4941 7.15226 17.226 7.62274L14.8417 11.6415C14.5737 12.112 13.9801 12.2732 13.5159 12.0016L13.2802 11.8636C12.6418 11.4901 12.212 10.8359 12.1183 10.0949C12.0506 9.55986 11.4896 9.24561 11.0066 9.47215L10.3983 9.75748C10.1486 9.87461 9.85824 9.86134 9.61994 9.7219L6.88105 8.26911C6.5348 8.0665 6.37577 7.6459 6.49976 7.26067L6.76605 6.14964C6.84871 5.89282 6.74427 5.60754 6.49976 5.5C4.54773 4.64152 1.99976 5.48233 1.99976 3.99999C1.99976 2.51764 6.91919 0.605843 10.1865 2.51766L12.9759 3.99999C13.2142 4.13942 13.3696 4.387 13.3944 4.66474L13.4548 5.34133C13.5027 5.87851 14.0517 6.2138 14.5427 6.00571C15.2228 5.71749 15.9967 5.76757 16.6351 6.14112Z" stroke="#343434" stroke-width="2"/>
<path id="Rectangle 47" d="M6.49988 8.5L1.49268 17.7404C1.22736 18.1523 1.35775 18.7056 1.77812 18.9516L3.32219 19.8551C3.74257 20.101 4.28053 19.9388 4.49989 19.5L8.99988 10" stroke="#343434" stroke-width="2"/>
</g>
</svg>
